<svg xmlns="http://www.w3.org/2000/svg" xmlns:xlink="http://www.w3.org/1999/xlink" width="548" height="493" viewBox="0 0 548 493">
  <defs>
    <linearGradient id="linear-gradient" x1="0.021" y1="1" x2="0.335" y2="0.251" gradientUnits="objectBoundingBox">
      <stop offset="0" stop-color="#00ffcb"/>
      <stop offset="0" stop-color="#00fdc9"/>
      <stop offset="1" stop-color="#008066"/>
    </linearGradient>
    <linearGradient id="linear-gradient-2" x1="0.46" y1="-0.345" x2="0.591" y2="3.193" gradientUnits="objectBoundingBox">
      <stop offset="0" stop-opacity="0"/>
      <stop offset="0.99"/>
    </linearGradient>
    <linearGradient id="linear-gradient-3" y1="0.5" x2="1" y2="0.5" gradientUnits="objectBoundingBox">
      <stop offset="0" stop-color="#e5c5d5"/>
      <stop offset="0.42" stop-color="#ead4d1"/>
      <stop offset="1" stop-color="#f0e9cb"/>
    </linearGradient>
    <linearGradient id="linear-gradient-4" x1="-0.424" y1="0.009" x2="6.929" y2="3.353" xlink:href="#linear-gradient-3"/>
    <linearGradient id="linear-gradient-5" x1="0.478" y1="-0.294" x2="0.577" y2="2.187" xlink:href="#linear-gradient-2"/>
    <linearGradient id="linear-gradient-6" x1="0.368" y1="0.685" x2="0.858" y2="0.397" xlink:href="#linear-gradient-2"/>
    <linearGradient id="linear-gradient-7" x1="-0.001" y1="0.499" x2="0.999" y2="0.499" xlink:href="#linear-gradient-3"/>
    <linearGradient id="linear-gradient-8" x1="0.463" y1="0.459" x2="-1.824" y2="3.82" xlink:href="#linear-gradient-3"/>
    <linearGradient id="linear-gradient-9" x1="0" y1="0.502" x2="1.002" y2="0.502" xlink:href="#linear-gradient-3"/>
    <linearGradient id="linear-gradient-10" x1="1.021" y1="0.224" x2="-1.086" y2="1.224" xlink:href="#linear-gradient-2"/>
    <linearGradient id="linear-gradient-11" x1="0.148" y1="0.771" x2="1.177" y2="-0.19" xlink:href="#linear-gradient-2"/>
    <linearGradient id="linear-gradient-12" x1="0.356" y1="0.55" x2="0.201" y2="0.663" gradientUnits="objectBoundingBox">
      <stop offset="0.02" stop-color="#fff" stop-opacity="0"/>
      <stop offset="0.58" stop-color="#fff" stop-opacity="0.388"/>
      <stop offset="0.68" stop-color="#fff" stop-opacity="0.678"/>
      <stop offset="1" stop-color="#fff"/>
    </linearGradient>
    <linearGradient id="linear-gradient-13" x1="-0.154" y1="0.649" x2="1.846" y2="0.022" xlink:href="#linear-gradient-2"/>
    <linearGradient id="linear-gradient-14" x1="0.377" y1="0.483" x2="0.167" y2="0.522" xlink:href="#linear-gradient-12"/>
    <linearGradient id="linear-gradient-15" x1="0" y1="0.5" x2="1" y2="0.5" xlink:href="#linear-gradient-3"/>
    <linearGradient id="linear-gradient-16" x1="0" y1="0.5" x2="1" y2="0.5" xlink:href="#linear-gradient-3"/>
    <linearGradient id="linear-gradient-17" x1="0.951" y1="-0.466" x2="-0.499" y2="2.551" xlink:href="#linear-gradient-3"/>
    <linearGradient id="linear-gradient-18" x1="1.937" y1="0.309" x2="-2.57" y2="1.001" xlink:href="#linear-gradient-2"/>
    <linearGradient id="linear-gradient-19" x1="0.162" y1="0.538" x2="1.771" y2="0.366" xlink:href="#linear-gradient-3"/>
  </defs>
  <g id="background_about" data-name="background about" transform="translate(0 -1288)">
    <g id="Rectangle_6" data-name="Rectangle 6" transform="translate(0 1288)" stroke="#707070" stroke-width="1" fill="url(#linear-gradient)">
      <path d="M0,0H301.5A246.5,246.5,0,0,1,548,246.5v0A246.5,246.5,0,0,1,301.5,493H0a0,0,0,0,1,0,0V0A0,0,0,0,1,0,0Z" stroke="none"/>
      <path d="M.623.5H301.5a246,246,0,0,1,246,246v0a246,246,0,0,1-246,246H.623a.123.123,0,0,1-.123-.123V.623A.123.123,0,0,1,.623.5Z" fill="none"/>
    </g>
    <g id="start_up" transform="translate(94.598 1327.02)">
      <path id="Path_144" data-name="Path 144" d="M143.414,465.767c1.226-9.731-4.059-12.427-8.406-20.147s-9.562-14.878-12.065-24.143c-1.434-5.356-2.025-11.581-5.068-15.38-2.051-2.561-4.911-3.554-6.91-6.2-4.2-5.564-2.808-15.2-1.347-23.052s2.1-17.966-2.721-22.4c-3.2-2.929-7.484-1.887-11-3.946-4.65-2.745-6.954-10.4-7.1-17.5s1.356-14.044,2.069-21.079c3.694-36.153-13.369-71.7-9.866-107.845-2.208-.184-5.05-.49-7.249-.662.235,25.736.461,51.68-3.016,76.95S59.749,330.483,46.58,348.314c-5.05,6.826-11.43,14.473-10.431,24.241.591,6.005,4.025,11.765,2.608,17.476-.661,2.635-2.243,4.559-3.694,6.471A71.574,71.574,0,0,0,24.3,417.127c-4.972,14.927-8.432,39.216-18.254,48.2C50.162,468.9,99.274,462.164,143.414,465.767Z" transform="translate(-6.048 -66.828)" fill="#00ffcb" opacity="0.18"/>
      <path id="Path_145" data-name="Path 145" d="M95.014,143.423a26.431,26.431,0,0,1,2.973-10.233,2.854,2.854,0,0,1,1.139-1.226c1.139-.478,2.173,1.042,2.825,2.451,3.773,8.2,5.372,17.942,6.85,27.488,1.756,11.422,3.494,22.942,3.494,34.621a5.472,5.472,0,0,1-.217,1.936,2.969,2.969,0,0,1-1.738,1.642c-2.721,1.225-8.032,2.745-10.161-.919-1.886-3.248-1.834-10.846-2.425-14.706C95.718,171.009,93.3,157.185,95.014,143.423Z" transform="translate(-35.489 -62.553)" fill="#00ffcb"/>
      <path id="Path_146" data-name="Path 146" d="M194.9,110.007c1.052.245,53.589,31.569,53.589,31.569s1.226,29.976,1.052,29.229S108.114,189.384,108.3,187.656s-1.938-37.7-1.938-37.7l45.939-32.7Z" transform="translate(-39.461 -61.246)" fill="#00ffcb"/>
      <path id="Path_147" data-name="Path 147" d="M191.917,117.658c1.052.257,54.51,32.574,54.51,32.574s3.477,21.777,3.286,21.03S108.287,189.841,108.47,188.113s-1.591-29.523-1.591-29.523l46.07-33.432Z" transform="translate(-39.635 -61.703)" fill="url(#linear-gradient-2)"/>
      <path id="Path_148" data-name="Path 148" d="M162.763,188.875c1.608,1.765,3.068,4.277,5.111,4.449a5.407,5.407,0,0,0,2.825-.907,5.177,5.177,0,0,0,2.755-2.672,8.435,8.435,0,0,0,.391-2.083,48.066,48.066,0,0,0-1.912-18.591c-.643-2.059-.287-8-1.738-8.983s-4.346,3.162-5.954,3.493a1.194,1.194,0,0,0-.469.184c-.522.4-.478,1.458-.374,2.279a112.161,112.161,0,0,1,.939,15.294,2.75,2.75,0,0,0-2.677-2.659,4.834,4.834,0,0,0-4.025,5.784c.269,1.078,1.087,1.36,1.738,1.765A14.7,14.7,0,0,1,162.763,188.875Z" transform="translate(-56.498 -64.23)" fill="url(#linear-gradient-3)"/>
      <path id="Path_149" data-name="Path 149" d="M170.317,177.739a1.257,1.257,0,0,0,.974,0c.669-.331.869-1.507.921-2.451a29.965,29.965,0,0,0-.261-3.848l-.817-7.255a1.089,1.089,0,0,0-.113-.466.524.524,0,0,0-.5-.221,9.054,9.054,0,0,0-4.346,1.226l.469,5.306a3.325,3.325,0,0,0,.113.711q.122.323.269.625c.608,1.348,0,2.953.539,4.216A4.408,4.408,0,0,0,170.317,177.739Z" transform="translate(-59.385 -64.442)" fill="url(#linear-gradient-4)"/>
      <path id="Path_150" data-name="Path 150" d="M190.723,59.187a10.713,10.713,0,0,1,9.909.368,8.446,8.446,0,0,1,2.1,1.52,18.42,18.42,0,0,1,5.633,9.571c.356,1.7.435,3.517.826,5.208a5.288,5.288,0,0,0,2.416,3.824,3.038,3.038,0,0,1-2.938,1.924,35.8,35.8,0,0,0,2.868,5.208,4.9,4.9,0,0,1-3.868-.49,13.165,13.165,0,0,1,.53,3.983,6.036,6.036,0,0,1-3.025-1.324c-.2.953-.862,1.566-1.565,1.458a3.782,3.782,0,0,1-1.895-1.029l-2.973-2.451a28.255,28.255,0,0,1-6.172-6.311,30.527,30.527,0,0,1-2.773-5.772c-.7-1.838-4.494-3.738-4.607-5.87C184.96,64.628,188.1,59.91,190.723,59.187Z" transform="translate(-65.718 -58.147)" fill="#3e3e54"/>
      <path id="Path_151" data-name="Path 151" d="M170.84,158.75l1.26,7.169q.379,2.313.956,4.547c1.243,4.473,3.72,8.26,4.346,12.978.113.8.235,1.74.765,2.059a1.211,1.211,0,0,0,1.008,0c3.129-.98,6.389-.441,9.562-.858A39.8,39.8,0,0,0,195.8,182.7a113.318,113.318,0,0,1,21.879-4.9,1.988,1.988,0,0,0,1.921-1.3,3.771,3.771,0,0,0,.078-1.225c-.426-9.424-3.477-18.125-5.589-27.084a2.321,2.321,0,0,1-.045-1.491,1.416,1.416,0,0,1,.81-.961,83.709,83.709,0,0,0,13.491-12.01l-5.337-11.471c-3.086-6.642-6.45-13.628-11.587-16.912-3.207-2.034-6.815-2.451-10.327-2.451a89.588,89.588,0,0,0-11.3.98,29.362,29.362,0,0,0-7.084,1.3c-6.354,2.451-15.977,9.6-18.254,16.691-6.085,18.836-3.138,36.692-3.686,37.783a4.11,4.11,0,0,0-.548,1.226,1.711,1.711,0,0,0,1.313,2,3.556,3.556,0,0,0,2.077-.944,14.689,14.689,0,0,1,7.206-2.672C170.788,159.485,170.788,158.468,170.84,158.75Z" transform="translate(-57.396 -60.821)" fill="#fff"/>
      <path id="Path_152" data-name="Path 152" d="M205.1,145.981c.023,2.4-.067,4.807-.27,7.194a3.026,3.026,0,0,1-.269,1.226,1.85,1.85,0,0,1-1.408.784c-5.928,1.066-11.943.8-17.932.539a1.4,1.4,0,0,1-.756-.2,1.947,1.947,0,0,1-.574-.968c-.548-1.642-1.234-4.9.122-6.238s4.537-.76,6.085-.907Z" transform="translate(-65.065 -63.396)" fill="#00ffcb"/>
      <path id="Path_153" data-name="Path 153" d="M205.1,145.981c.023,2.4-.067,4.807-.27,7.194a3.026,3.026,0,0,1-.269,1.226,1.85,1.85,0,0,1-1.408.784c-5.928,1.066-11.943.8-17.932.539a1.4,1.4,0,0,1-.756-.2,1.947,1.947,0,0,1-.574-.968c-.548-1.642-1.234-4.9.122-6.238s4.537-.76,6.085-.907Z" transform="translate(-65.065 -63.396)" fill="url(#linear-gradient-5)"/>
      <path id="Path_154" data-name="Path 154" d="M169.635,187.789c0-.576-.635-.466-.974-.159-10.431,9.363-20.41,19.608-30.423,29.731a49.118,49.118,0,0,0-6.493,7.61,19.926,19.926,0,0,0-3.477,10.65,24.044,24.044,0,0,0,.956,6.385c3.859,14.559,13.212,24.51,19.9,36.912,3.338,6.128,6.146,13.174,10.648,17.635a6.717,6.717,0,0,1,2.208,3.174c-.1.147,1.017-.38.913-.233a55.023,55.023,0,0,0,9.709-11.03,93.151,93.151,0,0,1-8.692-12.451c-1.426-2.279-2.851-4.559-4.12-7.01a119.234,119.234,0,0,1-5.7-13.677c-1.26-3.407-3.164-6.128-2.39-9.8,1.1-5.257,11-12.463,16.689-17.157,5.511-4.559,14.777-11.593,14.542-11.446,0,0-5.137,32.01,7.084,57.6s28.763,64.3,29.7,63.862,9.405-17.243,9.405-17.243l-23.2-55.7s6.658-68.886,1.13-83.065Z" transform="translate(-46.76 -65.571)" fill="#3e3e54"/>
      <path id="Path_155" data-name="Path 155" d="M169.635,187.789c0-.576-.635-.466-.974-.159-10.431,9.363-20.41,19.608-30.423,29.731a49.118,49.118,0,0,0-6.493,7.61,19.926,19.926,0,0,0-3.477,10.65,24.044,24.044,0,0,0,.956,6.385c3.859,14.559,13.212,24.51,19.9,36.912,3.338,6.128,6.146,13.174,10.648,17.635a6.717,6.717,0,0,1,2.208,3.174c-.1.147,1.017-.38.913-.233a55.023,55.023,0,0,0,9.709-11.03,93.151,93.151,0,0,1-8.692-12.451c-1.426-2.279-2.851-4.559-4.12-7.01a119.234,119.234,0,0,1-5.7-13.677c-1.26-3.407-3.164-6.128-2.39-9.8,1.1-5.257,11-12.463,16.689-17.157,5.511-4.559,14.777-11.593,14.542-11.446,0,0-5.137,32.01,7.084,57.6s28.763,64.3,29.7,63.862,9.405-17.243,9.405-17.243l-23.2-55.7s6.658-68.886,1.13-83.065Z" transform="translate(-46.76 -65.571)" fill="url(#linear-gradient-6)"/>
      <path id="Path_156" data-name="Path 156" d="M187.382,311.981q.478,8.971,1.339,17.893c.122,1.226.33,2.659,1.1,3.248a1.846,1.846,0,0,0,2.33-.49,12.8,12.8,0,0,0,3.312-6.3,49.006,49.006,0,0,0,1.1-7.807L197.5,307.9c.13-1.544.217-3.309-.548-4.424s-2.051-1.054-3.129-1.458c-1.652-.625-2.9-2.451-4.068-4.216-.939,1.532-3.912,4.547-3.851,6.581,0,1.091.817,2.365,1.034,3.431A28.852,28.852,0,0,1,187.382,311.981Z" transform="translate(-65.958 -72.469)" fill="#3e3e54"/>
      <path id="Path_157" data-name="Path 157" d="M271.211,347.6a16.678,16.678,0,0,1,.626,3.48q.744,5.785,1.921,11.434a14.13,14.13,0,0,0,.965,3.431,2.7,2.7,0,0,0,2.182,1.8c1.46,0,2.373-2.206,2.938-4.093a50.274,50.274,0,0,0,2.243-11.03,24.457,24.457,0,0,0-1.547-11.03,3.636,3.636,0,0,0-.939-1.434,5.123,5.123,0,0,0-1.686-.539c-1.547-.539-2.486-2.757-3.868-3.86a.659.659,0,0,0-.452-.208,1.013,1.013,0,0,0-.635.552,41.081,41.081,0,0,0-3.3,6.128c-.635,1.458-.817,1.654.078,2.806A8.926,8.926,0,0,1,271.211,347.6Z" transform="translate(-93.677 -74.724)" fill="#3e3e54"/>
      <path id="Path_158" data-name="Path 158" d="M305.3,126.5a26.634,26.634,0,0,1,2.964-10.233,2.864,2.864,0,0,1,1.147-1.226c1.139-.49,2.173,1.042,2.825,2.451,3.773,8.186,5.372,17.942,6.85,27.488,1.738,11.41,3.477,22.942,3.529,34.621a5.574,5.574,0,0,1-.217,1.924,2.923,2.923,0,0,1-1.738,1.642c-2.721,1.226-8.04,2.745-10.161-.907-1.886-3.26-1.834-10.846-2.434-14.706C306,154.091,303.582,140.267,305.3,126.5Z" transform="translate(-105.535 -61.542)" fill="#00ffcb"/>
      <path id="Path_159" data-name="Path 159" d="M420.782,469.855c-15.8-4.118-26.4-24.768-34.352-44.449-1.991-4.9-4.042-10.061-7.354-13.26s-8.3-3.75-11.048.38a138.08,138.08,0,0,0-9.675-31.042c-3.877-8.579-9.005-16.777-15.933-19.608s-15.733,1.85-17.48,11.7c-5.928.49-10.431-7.9-11.717-16.066s-.6-16.8-2.182-24.866c-1.052-5.4-3.112-10.5-3.294-16.091-.374-11.912,7.823-23.076,5.094-34.314-1.625-6.74-6.624-10.65-9.257-16.716-1.738-4.056-2.382-8.873-2.973-13.566l-8.371-67.1c-2.034.674-4.8,3.75-6.832,4.424,3.6,54.989,6.876,112.907-9.37,163.153-3.355,10.368-7.719,20.576-14.438,26.961-4.181,3.946-9.04,6.128-13.717,8.8-7.528,4.2-14.968,9.8-19.949,18.8s-6.954,22.059-3,32.023c2.86,7.218-.6,17.893-.261,26.14C286.937,463.679,358.518,471.228,420.782,469.855Z" transform="translate(-78.258 -65.719)" fill="#00ffcb" opacity="0.18"/>
      <path id="Path_160" data-name="Path 160" d="M203.576,103.844a24.84,24.84,0,0,1-5.407,13.223,8.3,8.3,0,0,1-3.564,2.659,3.646,3.646,0,0,1-3.859-1,10.05,10.05,0,0,1-1.947-4.265c-.078-.306-.156-.625-.226-.931a7.464,7.464,0,0,1,1.321-6.128,3.645,3.645,0,0,0,.443-.735,3.245,3.245,0,0,0,.174-.6c.539-2.7-.391-4.767-.574-7.108A5.36,5.36,0,0,1,191,95.646a12.237,12.237,0,0,1,5.928-5.355,2.222,2.222,0,0,1,.93-.147c1.895.123,2.243,2.451,2.451,4.387.156,1.446.313,2.88.461,4.326a12.271,12.271,0,0,0,.7,3.407,2.129,2.129,0,0,0,2.112,1.581Z" transform="translate(-66.792 -60.059)" fill="url(#linear-gradient-7)"/>
      <path id="Path_161" data-name="Path 161" d="M199.576,90.9a36.562,36.562,0,0,1-1.443,8.468c-2.373,7.255-7.006,7.353-7.006,7.353a3.241,3.241,0,0,0,.174-.6c.539-2.7-.391-4.767-.574-7.108Z" transform="translate(-67.565 -60.104)" fill="url(#linear-gradient-8)"/>
      <path id="Path_162" data-name="Path 162" d="M179.421,84.742a22.749,22.749,0,0,0-1.13,4.9,11.307,11.307,0,0,0,1.521,6.655,5.585,5.585,0,0,0,4.52,2.88,6.939,6.939,0,0,0,3.286-.968,20.107,20.107,0,0,0,7.554-7.5,2.113,2.113,0,0,0,2.364,1.3,4.474,4.474,0,0,0,2.312-1.8,4.143,4.143,0,0,0,.991-2.745c-.113-1.63-1.46-2.39-2.608-2.806a13.3,13.3,0,0,0,2.347-4,11.712,11.712,0,0,0-1.234-9.485,7.9,7.9,0,0,0-6.545-3.75,33.877,33.877,0,0,0-3.981.466,10.288,10.288,0,0,0-3.477.735c-1.469.735-1.669,2.267-2.251,4.167Z" transform="translate(-63.412 -58.701)" fill="url(#linear-gradient-9)"/>
      <path id="Path_163" data-name="Path 163" d="M221.6,179.275h-4.007a6.785,6.785,0,0,1-1.052-1.838c-5.328-12.99-4.546-72.134-2.947-74.756,1.417-2.377,6.441-2.145,8-2.01h.469l2.39,2.071C219.061,118.82,221.6,179.275,221.6,179.275Z" transform="translate(-74.785 -60.684)" fill="#00ffcb"/>
      <path id="Path_164" data-name="Path 164" d="M219.061,177.436h-2.521c-5.328-12.99-4.546-72.134-2.947-74.756,1.417-2.377,6.441-2.145,8-2.01l.313.27C216.514,116.969,219.061,177.436,219.061,177.436Z" transform="translate(-74.785 -60.684)" fill="url(#linear-gradient-10)"/>
      <path id="Path_165" data-name="Path 165" d="M222.453,192.53c-2.622-.007-5.049-1.957-6.389-5.135l-15.177-35.92a2.523,2.523,0,0,1,.53-2.689c.657-.553,1.507-.282,1.93.617l15.22,35.944c.934,2.23,2.727,3.448,4.546,3.088,10.37-1.973,15.542-3.395,17.141-4.13v-5.27c-.029-1.117.59-2.055,1.382-2.1s1.458.832,1.486,1.949c0,.5.113,4.9,0,6.765s-.8,2.574-8,4.338c-3.807.931-8.406,1.85-11.587,2.451a5.582,5.582,0,0,1-1.087.086Z" transform="translate(-70.893 -63.547)" fill="#00ffcb"/>
      <path id="Path_166" data-name="Path 166" d="M163.225,199.512a2.239,2.239,0,0,1-1.391-.527,8.655,8.655,0,0,1-2.373-5.1l-7.041-35.908a2.219,2.219,0,0,1,1-2.494c.766-.3,1.558.336,1.769,1.415l7.032,35.908a5.124,5.124,0,0,0,1.017,2.647c4.642-1.912,6.763-3.2,7.458-3.787.148-2.966.721-11.814.748-12.255.072-1.113.771-1.934,1.56-1.832s1.372,1.086,1.3,2.2c-.243,3.8-.721,11.348-.765,12.721-.052,1.667-1.043,2.721-4.085,4.338a56.414,56.414,0,0,1-5.45,2.451,2.037,2.037,0,0,1-.782.221Z" transform="translate(-54.787 -63.96)" fill="#00ffcb"/>
      <path id="Path_167" data-name="Path 167" d="M222.442,192.711c-2.622,0-5.05-1.944-6.389-5.123l-15.186-35.92a2.533,2.533,0,0,1,.508-2.716c.661-.565,1.52-.29,1.943.621l15.186,35.92c.937,2.218,2.723,3.433,4.537,3.088,10.379-1.973,15.551-3.395,17.15-4.13v-5.282c-.026-1.117.594-2.052,1.386-2.089s1.456.838,1.482,1.955c0,.5.122,4.9,0,6.765s-.8,2.574-8,4.338c-3.816.931-8.406,1.851-11.587,2.451A4.761,4.761,0,0,1,222.442,192.711Z" transform="translate(-70.882 -63.556)" fill="url(#linear-gradient-11)"/>
      <path id="Path_168" data-name="Path 168" d="M222.418,192.351c-2.621,0-5.048-1.948-6.389-5.123l-15.177-35.92a2.746,2.746,0,0,1-.069-2.075,1.282,1.282,0,0,1,2.529,0L218.5,185.145c.936,2.227,2.727,3.448,4.546,3.1,10.37-1.985,15.542-3.407,17.141-4.142v-5.27c-.025-1.1.577-2.024,1.356-2.083.792-.028,1.453.845,1.486,1.961,0,.49.113,4.9,0,6.765s-.8,2.561-8,4.326c-3.807.931-8.406,1.851-11.587,2.451a5.592,5.592,0,0,1-1.026.1Z" transform="translate(-70.858 -63.527)" fill="url(#linear-gradient-12)"/>
      <path id="Path_169" data-name="Path 169" d="M163.186,199.512a2.219,2.219,0,0,1-1.391-.527,8.712,8.712,0,0,1-2.382-5.1l-7.032-35.908a2.214,2.214,0,0,1,1-2.488c.763-.3,1.554.333,1.765,1.41l7.041,35.908a5.338,5.338,0,0,0,1.008,2.647c4.65-1.912,6.771-3.2,7.467-3.787.148-2.966.721-11.814.748-12.255.072-1.113.771-1.934,1.56-1.832s1.372,1.086,1.3,2.2c-.243,3.8-.73,11.348-.765,12.721-.052,1.667-1.043,2.721-4.094,4.338a55.4,55.4,0,0,1-5.441,2.451A2.036,2.036,0,0,1,163.186,199.512Z" transform="translate(-54.774 -63.96)" fill="url(#linear-gradient-13)"/>
      <g id="Group_1" data-name="Group 1" transform="translate(97.72 91.372)" opacity="0.69">
        <path id="Path_170" data-name="Path 170" d="M163.433,199.433a2.239,2.239,0,0,1-1.391-.527,8.753,8.753,0,0,1-2.382-5.1l-7.032-35.92a2.214,2.214,0,0,1,1-2.488c.763-.3,1.554.333,1.765,1.41l7.041,35.92a5.41,5.41,0,0,0,1.008,2.647c4.65-1.924,6.771-3.2,7.467-3.8.148-2.966.721-11.814.748-12.255.072-1.113.771-1.934,1.56-1.832s1.372,1.086,1.3,2.2c-.243,3.8-.73,11.348-.765,12.721-.052,1.667-1.043,2.721-4.085,4.326a51,51,0,0,1-5.45,2.451,2.061,2.061,0,0,1-.782.245Z" transform="translate(-152.576 -155.326)" fill="url(#linear-gradient-14)"/>
      </g>
      <path id="Path_171" data-name="Path 171" d="M158.375,165.45a3.979,3.979,0,0,1,1.973.564,3.019,3.019,0,0,1,1.269,2.083,23.889,23.889,0,0,0,.113,2.635c.217.833.626,1.226.782,1.887.3,1.226-.469,2.647-.217,3.934.113.576.417,1.054.522,1.642a3.682,3.682,0,0,1-.139,1.654,5.994,5.994,0,0,1-6.033,4.559,4.777,4.777,0,0,1-3.877-2,11,11,0,0,1-1.46-4.583,44.7,44.7,0,0,1-.5-6.483C150.769,165.34,154.924,165.217,158.375,165.45Z" transform="translate(-54.266 -64.556)" fill="url(#linear-gradient-15)"/>
      <path id="Path_172" data-name="Path 172" d="M240.589,137.952s11.978,32.207,8.571,37.4-30.675,1.422-30.675,1.422c-2.477-.172-4.424,2.855-6.876,3.333-1.818.326-3.612-.815-4.642-2.954a5.379,5.379,0,0,0-1.121-1.936,8.532,8.532,0,0,0-.869-.466c-1.113-.735-1.3-2.843-1.269-4.583a2.084,2.084,0,0,0-.122-.968,1.669,1.669,0,0,0-.339-.417,4.158,4.158,0,0,1-.426-3.775,4.926,4.926,0,0,1,2.217-2.6,27.972,27.972,0,0,1,2.79-1.226,10.734,10.734,0,0,0,3.381-2.647c.661-.76,1.469-1.691,2.269-1.226a2.514,2.514,0,0,1,.756.821l2.608,3.775a2.7,2.7,0,0,0,2.608,1.654l9.136.466a11.454,11.454,0,0,0,5.9-.76l-6.467-12.7a2.186,2.186,0,0,1-.313-1.569,1.459,1.459,0,0,1,.5-.65C232.392,144.766,236.46,141.482,240.589,137.952Z" transform="translate(-71.505 -62.916)" fill="url(#linear-gradient-16)"/>
      <path id="Path_173" data-name="Path 173" d="M207.079,87.638a.714.714,0,0,1,.73.135,1.628,1.628,0,0,1,.73.944,2.584,2.584,0,0,1-.435,1.851,2.475,2.475,0,0,1-1.686,1.446,1.46,1.46,0,0,1-1.3-1.226,1.79,1.79,0,0,1,.626-1.924c.252-.1.469,0,.7-.27S206.783,87.809,207.079,87.638Z" transform="translate(-72.338 -59.907)" fill="url(#linear-gradient-17)"/>
      <path id="Path_174" data-name="Path 174" d="M183.1,183.307l-1.938.5-1.2.306-5.12-24.143c-9.4-22.525-5.624-46.57-4.138-49.021.608-1.017,2.295-1.8,4.051-2.365a34.506,34.506,0,0,1,5.05-1.226C175.1,121.97,183.1,183.307,183.1,183.307Z" transform="translate(-60.225 -61.088)" fill="#00ffcb"/>
      <path id="Path_175" data-name="Path 175" d="M181.188,183.846l-1.2.306-5.12-24.143c-9.4-22.525-5.624-46.57-4.138-49.021.608-1.017,2.295-1.8,4.051-2.365a13.742,13.742,0,0,1,3.121-.637C173.252,122.338,180.962,182.118,181.188,183.846Z" transform="translate(-60.233 -61.125)" fill="url(#linear-gradient-18)"/>
      <path id="Path_176" data-name="Path 176" d="M244.073,145.486s8.162,15.2,6.78,17.157-4.929,1.728-4.929,1.728a3.811,3.811,0,0,0-.235-2.929c-.774-1.63-6.163-12.255-6.163-12.255Z" transform="translate(-83.82 -63.366)" fill="url(#linear-gradient-19)"/>
    </g>
  </g>
</svg>
