<svg xmlns="http://www.w3.org/2000/svg" xmlns:xlink="http://www.w3.org/1999/xlink" width="375" height="537" viewBox="0 0 375 537">
  <defs>
    <linearGradient id="linear-gradient" x1="0.511" y1="0.976" x2="0.634" y2="0.026" gradientUnits="objectBoundingBox">
      <stop offset="0" stop-color="#00ffcb"/>
      <stop offset="0.402" stop-color="#00fdc9"/>
      <stop offset="1" stop-color="#008066"/>
    </linearGradient>
    <linearGradient id="linear-gradient-2" x1="0.52" y1="-0.095" x2="0.475" y2="0.984" gradientUnits="objectBoundingBox">
      <stop offset="0.02" stop-color="#fff" stop-opacity="0"/>
      <stop offset="0.58" stop-color="#fff" stop-opacity="0.388"/>
      <stop offset="0.68" stop-color="#fff" stop-opacity="0.678"/>
      <stop offset="1" stop-color="#fff"/>
    </linearGradient>
    <linearGradient id="linear-gradient-3" x1="0.519" y1="-0.095" x2="0.474" y2="0.985" xlink:href="#linear-gradient-2"/>
    <linearGradient id="linear-gradient-4" x1="0.545" y1="-0.688" x2="0.5" y2="0.391" xlink:href="#linear-gradient-2"/>
    <linearGradient id="linear-gradient-5" x1="0.327" y1="0.309" x2="0.525" y2="0.707" gradientUnits="objectBoundingBox">
      <stop offset="0.01"/>
      <stop offset="0.13" stop-opacity="0.69"/>
      <stop offset="1" stop-opacity="0"/>
    </linearGradient>
    <linearGradient id="linear-gradient-6" x1="0.476" y1="0.327" x2="0.52" y2="1.093" xlink:href="#linear-gradient-5"/>
    <linearGradient id="linear-gradient-7" x1="0.529" y1="1.642" x2="0.476" y2="-0.205" xlink:href="#linear-gradient-5"/>
    <linearGradient id="linear-gradient-8" x1="0.563" y1="0.936" x2="0.432" y2="-0.002" xlink:href="#linear-gradient-5"/>
    <linearGradient id="linear-gradient-9" x1="0" y1="0.5" x2="1" y2="0.5" xlink:href="#linear-gradient-5"/>
    <linearGradient id="linear-gradient-10" x1="0" y1="0.499" x2="1.001" y2="0.499" xlink:href="#linear-gradient-5"/>
    <linearGradient id="linear-gradient-11" x1="-0.123" y1="0.666" x2="0.859" y2="0.398" xlink:href="#linear-gradient-5"/>
    <linearGradient id="linear-gradient-12" x1="0.499" y1="1.897" x2="0.502" y2="-1.678" xlink:href="#linear-gradient-5"/>
    <linearGradient id="linear-gradient-13" x1="0.483" y1="0.55" x2="0.729" y2="-0.387" xlink:href="#linear-gradient-5"/>
    <linearGradient id="linear-gradient-14" x1="0.456" y1="0.39" x2="0.749" y2="1.182" xlink:href="#linear-gradient-5"/>
    <linearGradient id="linear-gradient-15" x1="0.259" y1="-0.065" x2="0.853" y2="1.336" xlink:href="#linear-gradient-5"/>
    <linearGradient id="linear-gradient-16" x1="0.261" y1="-0.065" x2="0.855" y2="1.336" xlink:href="#linear-gradient-5"/>
    <clipPath id="clip-iPhone_X_XS_11_Pro_2">
      <rect width="375" height="537"/>
    </clipPath>
  </defs>
  <g id="iPhone_X_XS_11_Pro_2" data-name="iPhone X/XS/11 Pro – 2" clip-path="url(#clip-iPhone_X_XS_11_Pro_2)">
    <rect width="375" height="537" fill="#fff"/>
    <g id="background_header" data-name="background header" transform="translate(-354 1398)">
      <g id="Rectangle_9" data-name="Rectangle 9" transform="translate(286.438 -1114.888) rotate(-60)" stroke="#707070" stroke-width="1" fill="url(#linear-gradient)">
        <path d="M190.5,0h0A190.5,190.5,0,0,1,381,190.5V602a0,0,0,0,1,0,0H0a0,0,0,0,1,0,0V190.5A190.5,190.5,0,0,1,190.5,0Z" stroke="none"/>
        <path d="M190.5.5h0a190,190,0,0,1,190,190V601a.5.5,0,0,1-.5.5H1a.5.5,0,0,1-.5-.5V190.5A190,190,0,0,1,190.5.5Z" fill="none"/>
      </g>
      <g id="rocket_boy" transform="translate(395.423 -1306.83)">
        <path id="Path_177" data-name="Path 177" d="M281.158,86.114C269.64,77.4,254.676,73.9,240.091,73.521a112.827,112.827,0,0,0-51.136,10.721c-12.091,5.7-22.96,13.545-34.546,20.115-24.317,13.773-51.793,22.02-75.242,37.136s-43.292,40.254-39.946,67.3c3.151,25.528,26.162,45.057,50.908,54.5s51.793,11.25,77.795,16.671c23.828,4.966,48.659,13.025,71.922,6.008,12.42-3.745,23.154-11.51,35.388-15.711,14.989-5.137,33.029-5.446,43.645-16.883,8.266-8.9,9.319-22.174,7.137-33.937-2.528-13.741-8.577-26.611-10.263-40.539-1.449-11.95,1.087-23.566.565-35.418C315.468,123.771,296.8,97.869,281.158,86.114Z" transform="translate(-38.85 -73.48)" fill="#00ffcb" opacity="0.18"/>
        <path id="Path_178" data-name="Path 178" d="M176.773,262.251a29.58,29.58,0,0,0-27.173-7.978c-3.952.9-7.667,2.6-11.611,3.525a30.513,30.513,0,0,1-26.061-6.178,26.106,26.106,0,0,0,14.88,16.207c-6.808-.057-13.3-2.654-19.379-5.568-9.268-4.428-18.655-9.768-29.027-10.118-12.2-.358-23.263,6.3-33.223,13.163a37.356,37.356,0,0,1,24.814-3.329c18.537,4,32.178,21.686,51.1,23.192,11.1.879,21.722-4.07,31.42-9.361a68.579,68.579,0,0,0-8.308,14.571c8.156-6.642,21.578-3.37,29.911-9.809a18.194,18.194,0,0,0,6.2-9.915,12.02,12.02,0,0,0,0-7.188,6.515,6.515,0,0,0-5.494-4.363" transform="translate(-39.846 -106.608)" fill="#00ffcb" opacity="0.59"/>
        <path id="Path_179" data-name="Path 179" d="M176.773,262.251a29.58,29.58,0,0,0-27.173-7.978c-3.952.9-7.667,2.6-11.611,3.525a30.513,30.513,0,0,1-26.061-6.178,26.106,26.106,0,0,0,14.88,16.207c-6.808-.057-13.3-2.654-19.379-5.568-9.268-4.428-18.655-9.768-29.027-10.118-12.2-.358-23.263,6.3-33.223,13.163a37.356,37.356,0,0,1,24.814-3.329c18.537,4,32.178,21.686,51.1,23.192,11.1.879,21.722-4.07,31.42-9.361a68.579,68.579,0,0,0-8.308,14.571c8.156-6.642,21.578-3.37,29.911-9.809a18.194,18.194,0,0,0,6.2-9.915,12.02,12.02,0,0,0,0-7.188,6.515,6.515,0,0,0-5.494-4.363" transform="translate(-39.846 -106.608)" fill="url(#linear-gradient-2)"/>
        <path id="Path_180" data-name="Path 180" d="M187.239,268.074a15.776,15.776,0,0,0-14.509-4.257c-2.106.48-4.087,1.384-6.193,1.88a16.294,16.294,0,0,1-13.919-3.3,13.961,13.961,0,0,0,7.945,8.629c-3.631,0-7.094-1.425-10.355-2.971-4.971-2.369-9.959-5.242-15.5-5.405-6.5-.2-12.428,3.378-17.694,7.025a19.886,19.886,0,0,1,13.245-1.775c9.9,2.133,17.189,11.576,27.291,12.381,5.9.472,11.6-2.182,16.776-5a36.607,36.607,0,0,0-4.432,7.782c4.348-3.549,11.518-1.8,16.009-5.234a9.757,9.757,0,0,0,3.311-5.3,6.4,6.4,0,0,0,0-3.834,3.487,3.487,0,0,0-2.941-2.328" transform="translate(-51.154 -108.613)" fill="url(#linear-gradient-3)"/>
        <path id="Path_181" data-name="Path 181" d="M191.348,269.459a10.839,10.839,0,0,0-9.968-2.922c-1.449.326-2.814.952-4.263,1.286a11.238,11.238,0,0,1-9.563-2.263,9.6,9.6,0,0,0,5.46,5.951,17.289,17.289,0,0,1-7.12-2.043c-3.37-1.628-6.842-3.6-10.65-3.712-4.474-.138-8.544,2.32-12.184,4.827a13.665,13.665,0,0,1,9.108-1.221c6.8,1.465,11.8,7.961,18.747,8.507,4.07.326,7.971-1.5,11.526-3.435a25.661,25.661,0,0,0-3.042,5.348c2.991-2.442,7.92-1.237,10.953-3.6a6.705,6.705,0,0,0,2.283-3.639,4.466,4.466,0,0,0,0-2.637,2.381,2.381,0,0,0-2.014-1.628" transform="translate(-55.255 -109.201)" fill="url(#linear-gradient-4)"/>
        <path id="Path_182" data-name="Path 182" d="M185.811,206a139.238,139.238,0,0,0-19.927,8.14,7.129,7.129,0,0,0-2.663,1.929,2.377,2.377,0,0,0,0,2.988,3.756,3.756,0,0,0,2.865.659,153.06,153.06,0,0,0,37.174-6.406,2.362,2.362,0,0,0,1.1-.562c.573-.619.295-1.628-.1-2.344C200.337,203.009,192.838,203.749,185.811,206Z" transform="translate(-58.346 -97.836)" fill="#f3bd8d"/>
        <path id="Path_183" data-name="Path 183" d="M255.575,236.064a.886.886,0,0,0,.1.915.959.959,0,0,0,.875.363l3.37.537a1.426,1.426,0,0,0,1.1-.051,1.349,1.349,0,0,0,.712-.812c1.685-3.085,3.294-6.252,5.283-9.174,4.061-5.951,9.858-10.875,12.58-17.5a30.411,30.411,0,0,0,1.685-6.073c.6-3.329.674-7.22-1.879-9.524a1.855,1.855,0,0,0-1.314-.594,2.116,2.116,0,0,0-1.011.44c-2.528,1.693-6.387,3.37-8.333,5.7-1.533,1.864-2.528,4.77-3.581,6.919A108.533,108.533,0,0,0,258,225.563Q256.535,230.757,255.575,236.064Z" transform="translate(-72.955 -95.921)" fill="#f3bd8d"/>
        <path id="Path_184" data-name="Path 184" d="M212.413,186.266c-1.5,1.921-2.991,3.834-4.634,5.633a46.032,46.032,0,0,1-5.114,4.8,1.948,1.948,0,0,0-.775.969,1.844,1.844,0,0,0,.674,1.5c1.685,1.815,3.429,3.565,5.266,5.226a3.683,3.683,0,0,0,2.417,1.467,3.764,3.764,0,0,0,2.773-.653c8.653-4.217,16.009-10.517,24.435-15.157a3.12,3.12,0,0,1,1.154-.448,3.217,3.217,0,0,1,1.323.2,175.147,175.147,0,0,1,19.076,7,4.025,4.025,0,0,0,1.744.456,3.687,3.687,0,0,0,1.913-.871,62.185,62.185,0,0,0,7.76-6.577,2.533,2.533,0,0,0,.843-1.359,2.456,2.456,0,0,0-.725-1.7A52.222,52.222,0,0,0,253.8,172.819a39.859,39.859,0,0,0-17.054-4.884c-4.449-.147-11.071.285-14.324,3.761-1.609,1.734-2.7,4.07-3.935,6.016a103.107,103.107,0,0,1-6.075,8.555Z" transform="translate(-64.516 -91.041)" fill="#3f3d56"/>
        <path id="Path_185" data-name="Path 185" d="M212.413,186.266c-1.5,1.921-2.991,3.834-4.634,5.633a46.032,46.032,0,0,1-5.114,4.8,1.948,1.948,0,0,0-.775.969,1.844,1.844,0,0,0,.674,1.5c1.685,1.815,3.429,3.565,5.266,5.226a3.683,3.683,0,0,0,2.417,1.467,3.764,3.764,0,0,0,2.773-.653c8.653-4.217,16.009-10.517,24.435-15.157a3.12,3.12,0,0,1,1.154-.448,3.217,3.217,0,0,1,1.323.2,175.147,175.147,0,0,1,19.076,7,4.025,4.025,0,0,0,1.744.456,3.687,3.687,0,0,0,1.913-.871,62.185,62.185,0,0,0,7.76-6.577,2.533,2.533,0,0,0,.843-1.359,2.456,2.456,0,0,0-.725-1.7A52.222,52.222,0,0,0,253.8,172.819a39.859,39.859,0,0,0-17.054-4.884c-4.449-.147-11.071.285-14.324,3.761-1.609,1.734-2.7,4.07-3.935,6.016a103.107,103.107,0,0,1-6.075,8.555Z" transform="translate(-64.516 -91.041)" fill="url(#linear-gradient-5)"/>
        <path id="Path_186" data-name="Path 186" d="M206.729,167.105c2.342-.464,4.584-1.343,6.934-1.726,6.589-1.075,13.22,1.823,19.893,1.571a1.316,1.316,0,0,0,1.028-.358,1.226,1.226,0,0,0,.16-.814l-.253-6.032a12.876,12.876,0,0,0-.927-5.128c-1.542-3.256-5.561-4.754-9.226-4.542s-7.069,1.8-10.364,3.362L205.8,157.28c-1.879.9-4.44,1.823-5.612,3.647-.741,1.172-1.188,4.152-.329,5.283C201.067,167.854,205.019,167.4,206.729,167.105Z" transform="translate(-64.123 -87.72)" fill="#3f3d56"/>
        <path id="Path_187" data-name="Path 187" d="M206.729,167.105c2.342-.464,4.584-1.343,6.934-1.726,6.589-1.075,13.22,1.823,19.893,1.571a1.316,1.316,0,0,0,1.028-.358,1.226,1.226,0,0,0,.16-.814l-.253-6.032a12.876,12.876,0,0,0-.927-5.128c-1.542-3.256-5.561-4.754-9.226-4.542s-7.069,1.8-10.364,3.362L205.8,157.28c-1.879.9-4.44,1.823-5.612,3.647-.741,1.172-1.188,4.152-.329,5.283C201.067,167.854,205.019,167.4,206.729,167.105Z" transform="translate(-64.123 -87.72)" fill="url(#linear-gradient-6)"/>
        <path id="Path_188" data-name="Path 188" d="M304.517,120.637a1.9,1.9,0,0,1,.4,1.213,1.177,1.177,0,0,1-.918.765c-.413.1-.843.073-1.264.138-1.584.26-2.612,1.685-3.547,2.947s-2.233,2.58-3.834,2.442a9.742,9.742,0,0,1-2.275-.814,7.812,7.812,0,0,0-6.176.814,4.028,4.028,0,0,1-2.831.814,2.853,2.853,0,0,1-1.82-1.848,10.254,10.254,0,0,1-.64-4.257,3.617,3.617,0,0,1,.3-1.555c.388-.814,1.213-1.221,1.812-1.856a7.943,7.943,0,0,0,1.163-1.742,48.631,48.631,0,0,1,3.37-5.185c1.685-2.3,3.851-4.6,6.741-5.21a9.628,9.628,0,0,1,6.909,1.53,6.862,6.862,0,0,1,2.814,5.389C304.871,116.257,303.388,118.512,304.517,120.637Z" transform="translate(-77.064 -79.748)" fill="#f3bd8d"/>
        <path id="Path_189" data-name="Path 189" d="M306.374,109.532c.741.814,1.534,1.807,1.146,2.8a2.3,2.3,0,0,1-2.275,1.156c-1.812-.081-3.37-1.27-4.963-2.035a11.427,11.427,0,0,0-5.9-1.034,1.558,1.558,0,0,0-.674.179,1.632,1.632,0,0,0-.522.7l-2.073,4.331c-.421-.334-.345-.961-.278-1.482s-.051-1.2-.581-1.335a1.016,1.016,0,0,0-.632.106,2.349,2.349,0,0,0-1.281,2.8c.093.277.211.627,0,.814a.816.816,0,0,1-.522.09c-.893,0-1.559.749-2.157,1.392a2.556,2.556,0,0,1-2.275,1.083.761.761,0,0,1-.48-.3.994.994,0,0,1,0-.733l.362-1.9a2.68,2.68,0,0,0-.076-1.815,3.485,3.485,0,0,0-1.567-1.156c-.59-.317-1.2-.814-1.188-1.449a1.646,1.646,0,0,1,1.171-1.311q.912-.241,1.795-.57a3.819,3.819,0,0,1,.177-3.191,4.237,4.237,0,0,1,2.191-1.311,32.807,32.807,0,0,1,6.311-1.392,12.2,12.2,0,0,1,5.283.309,15.19,15.19,0,0,1,2.191,1.018c0,.334,3.294,1.766,3.707,1.994A11.008,11.008,0,0,1,306.374,109.532Z" transform="translate(-76.882 -79.12)" fill="#3f3d56"/>
        <path id="Path_190" data-name="Path 190" d="M305.092,105.722l-.084-2.116a4.642,4.642,0,0,0-2.629-4.616,19.655,19.655,0,0,0-4.626-2.654,10.662,10.662,0,0,0-9.007.952,14.425,14.425,0,0,0-4.659,5.08,3.627,3.627,0,0,1-1.331,1.571,3.725,3.725,0,0,1-1.466.277c-2.957.147-6.142.236-8.594-1.351a2.4,2.4,0,0,0-1.306-.545,1.3,1.3,0,0,0-.87.644,1.223,1.223,0,0,0-.056,1.058,3.024,3.024,0,0,0,1.685,1.473c2.772,1.294,5.974,1.27,9.058,1.4,5.123.228,10.212.969,15.3,1.628a52.935,52.935,0,0,0,6.522.521C304.924,109.059,305.16,107.35,305.092,105.722Z" transform="translate(-75.297 -77.621)" fill="#00ffcb"/>
        <path id="Path_191" data-name="Path 191" d="M305.092,105.722l-.084-2.116a4.642,4.642,0,0,0-2.629-4.616,19.655,19.655,0,0,0-4.626-2.654,10.662,10.662,0,0,0-9.007.952,14.425,14.425,0,0,0-4.659,5.08,3.627,3.627,0,0,1-1.331,1.571,3.725,3.725,0,0,1-1.466.277c-2.957.147-6.142.236-8.594-1.351a2.4,2.4,0,0,0-1.306-.545,1.3,1.3,0,0,0-.87.644,1.223,1.223,0,0,0-.056,1.058,3.024,3.024,0,0,0,1.685,1.473c2.772,1.294,5.974,1.27,9.058,1.4,5.123.228,10.212.969,15.3,1.628a52.935,52.935,0,0,0,6.522.521C304.924,109.059,305.16,107.35,305.092,105.722Z" transform="translate(-75.297 -77.621)" fill="url(#linear-gradient-7)"/>
        <path id="Path_192" data-name="Path 192" d="M276.123,130.722c-1.609,5.348-7.676,8.4-9.909,13.529-.531,1.221-.843,2.515-1.255,3.769-1.618,4.73-5.055,8.669-7.019,13.277-.682,1.628-1.239,3.378-2.646,4.461a6.053,6.053,0,0,1-4.036,1.042c-5.275-.317-9.336-5.014-14.568-5.7-3.109-.407-6.2.659-9.15,1.718a83.333,83.333,0,0,1,2.292-14.221,29.549,29.549,0,0,1,6.825-12.658c1.643-1.709,3.556-3.167,5.123-4.941.969-1.1,6.614,1.791,7.718.814.927-.814-2.789-5.544-1.685-6.073a49.645,49.645,0,0,1,11.695-3.427c4.289-.814,8.99-1.522,12.849.48a8.314,8.314,0,0,1,4.213,4.884,6.228,6.228,0,0,1-1.534,6.1" transform="translate(-68.554 -82.409)" fill="#fff"/>
        <path id="Path_193" data-name="Path 193" d="M308.971,177.921c.463.179.935.334,1.407.5a13.482,13.482,0,0,1,4.255,2.581,19.562,19.562,0,0,1,2.932,3.158,7.37,7.37,0,0,1,.354,7.953,1.782,1.782,0,0,1-.977.863,2.1,2.1,0,0,1-1.8-.7,19.593,19.593,0,0,1-4.162-5.047c-.843-1.482-1.854-3.313-3.606-3.354a7.257,7.257,0,0,1-1.188,0,2.78,2.78,0,0,1-1.1-.619c-4.213-3.313-8.24-6.993-13.22-9.068-2.376-.993-5.055-1.709-6.589-3.745a.879.879,0,0,1-.27-.668c.362-2.271,3.134-5.5,5.645-5.332,1.988.147,2.89,1.685,4.263,2.776C296.543,168.527,308.878,177.921,308.971,177.921Z" transform="translate(-77.6 -90.396)" fill="#f3bd8d"/>
        <path id="Path_194" data-name="Path 194" d="M236.739,151.2c-6.3.122-12.639-.529-18.882.545a33.724,33.724,0,0,0-16.59,7.961,2.543,2.543,0,0,1-1.222.733c-.843.13-1.542-.6-1.98-1.311-2.022-3.256-2.014-7.326-1.685-11.12.388-4.477,1.2-9.093,3.817-12.813a11,11,0,0,1,3.3-3.207,14.823,14.823,0,0,1,6.446-1.709c7.5-.611,14.989.733,22.5,1.123a16.737,16.737,0,0,0,6.37-.562c3-1.05,5.182-3.557,7.895-5.169,3.438-2.043,7.583-2.589,11.594-2.914a18.228,18.228,0,0,1,6.741.342,6.492,6.492,0,0,1,4.643,4.331c.5,2.125-.539,4.225-1.609,6.113a18.915,18.915,0,0,1-3.075,4.3c-2.014,1.962-4.668,3.093-7.044,4.583-2.022,1.278-3.143,2.89-4.794,4.469C249.251,150.6,241.887,151.1,236.739,151.2Z" transform="translate(-63.623 -82.614)" fill="#00ffcb"/>
        <path id="Path_195" data-name="Path 195" d="M236.739,151.2c-6.3.122-12.639-.529-18.882.545a33.724,33.724,0,0,0-16.59,7.961,2.543,2.543,0,0,1-1.222.733c-.843.13-1.542-.6-1.98-1.311-2.022-3.256-2.014-7.326-1.685-11.12.388-4.477,1.2-9.093,3.817-12.813a11,11,0,0,1,3.3-3.207,14.823,14.823,0,0,1,6.446-1.709c7.5-.611,14.989.733,22.5,1.123a16.737,16.737,0,0,0,6.37-.562c3-1.05,5.182-3.557,7.895-5.169,3.438-2.043,7.583-2.589,11.594-2.914a18.228,18.228,0,0,1,6.741.342,6.492,6.492,0,0,1,4.643,4.331c.5,2.125-.539,4.225-1.609,6.113a18.915,18.915,0,0,1-3.075,4.3c-2.014,1.962-4.668,3.093-7.044,4.583-2.022,1.278-3.143,2.89-4.794,4.469C249.251,150.6,241.887,151.1,236.739,151.2Z" transform="translate(-63.623 -82.614)" fill="url(#linear-gradient-8)"/>
        <path id="Path_196" data-name="Path 196" d="M253.36,243.328a27.89,27.89,0,0,0-2.663,7.505c-.177.92-.253,2.027.48,2.629a2.986,2.986,0,0,0,1.887.464L271,254.3a1.855,1.855,0,0,0,1.171-.244,1.318,1.318,0,0,0,.4-1.05c0-1.693-1.3-3.158-2.8-4.07s-3.235-1.335-4.786-2.133a2.33,2.33,0,0,1-.708-.513c-.767-.912.135-2.182.565-3.256a.861.861,0,0,0,.084-.431.84.84,0,0,0-.843-.594c-1.213-.065-2.073,1.229-3.269,1.425a3.925,3.925,0,0,1-1.559-.179C258.348,243.027,253.36,240.935,253.36,243.328Z" transform="translate(-72.181 -104.821)" fill="#3f3d56"/>
        <path id="Path_197" data-name="Path 197" d="M161.8,213.3a6.593,6.593,0,0,0-3.05.724,6.4,6.4,0,0,0-1.929,2.271,77.276,77.276,0,0,0-4.617,9.093c-.6,1.408-1.137,3.069-.345,4.38a3.637,3.637,0,0,0,3.514,1.441,9.9,9.9,0,0,0,3.707-1.449,19.232,19.232,0,0,0,4.449-3.191c1.036-1.075,1.929-2.442,3.37-2.882,1.1-.35,2.368-.13,3.37-.676a.76.76,0,0,0,.4-.415c.093-.342-.253-.635-.565-.814l-1.34-.887a4.268,4.268,0,0,1-1.348-1.164c-1.239-1.864,1.028-4.07.152-5.812C166.811,212.416,163.264,213.205,161.8,213.3Z" transform="translate(-56.577 -99.428)" fill="#3f3d56"/>
        <path id="Path_198" data-name="Path 198" d="M253.36,243.328a27.89,27.89,0,0,0-2.663,7.505c-.177.92-.253,2.027.48,2.629a2.986,2.986,0,0,0,1.887.464L271,254.3a1.855,1.855,0,0,0,1.171-.244,1.318,1.318,0,0,0,.4-1.05c0-1.693-1.3-3.158-2.8-4.07s-3.235-1.335-4.786-2.133a2.33,2.33,0,0,1-.708-.513c-.767-.912.135-2.182.565-3.256a.861.861,0,0,0,.084-.431.84.84,0,0,0-.843-.594c-1.213-.065-2.073,1.229-3.269,1.425a3.925,3.925,0,0,1-1.559-.179C258.348,243.027,253.36,240.935,253.36,243.328Z" transform="translate(-72.181 -104.821)" fill="url(#linear-gradient-9)"/>
        <path id="Path_199" data-name="Path 199" d="M161.8,213.3a6.593,6.593,0,0,0-3.05.724,6.4,6.4,0,0,0-1.929,2.271,77.276,77.276,0,0,0-4.617,9.093c-.6,1.408-1.137,3.069-.345,4.38a3.637,3.637,0,0,0,3.514,1.441,9.9,9.9,0,0,0,3.707-1.449,19.232,19.232,0,0,0,4.449-3.191c1.036-1.075,1.929-2.442,3.37-2.882,1.1-.35,2.368-.13,3.37-.676a.76.76,0,0,0,.4-.415c.093-.342-.253-.635-.565-.814l-1.34-.887a4.268,4.268,0,0,1-1.348-1.164c-1.239-1.864,1.028-4.07.152-5.812C166.811,212.416,163.264,213.205,161.8,213.3Z" transform="translate(-56.577 -99.428)" fill="url(#linear-gradient-10)"/>
        <path id="Path_200" data-name="Path 200" d="M274.4,130.787c-.042-.252.413-.138.573.065,2.848,3.85,4.424,8.417,6.269,12.8s4.12,8.8,7.945,11.755c1.567,1.221,3.547,2.442,3.648,4.4.067,1.514-1.079,2.792-2.149,3.891-2.528,2.58-5.5,5.356-9.159,5.226-.388-1.384-1.744-2.255-2.882-3.167-4.457-3.557-6.606-9.125-10.44-13.309-1.9-2.076-4.272-3.891-5.359-6.455-1.458-3.468-.211-7.432,1.466-10.8a14.9,14.9,0,0,1,3.227-4.64,6.819,6.819,0,0,1,5.283-1.856,4.243,4.243,0,0,1,3.783,3.663" transform="translate(-74.012 -83.744)" fill="#00ffcb"/>
        <path id="Path_201" data-name="Path 201" d="M274.4,130.787c-.042-.252.413-.138.573.065,2.848,3.85,4.424,8.417,6.269,12.8s4.12,8.8,7.945,11.755c1.567,1.221,3.547,2.442,3.648,4.4.067,1.514-1.079,2.792-2.149,3.891-2.528,2.58-5.5,5.356-9.159,5.226-.388-1.384-1.744-2.255-2.882-3.167-4.457-3.557-6.606-9.125-10.44-13.309-1.9-2.076-4.272-3.891-5.359-6.455-1.458-3.468-.211-7.432,1.466-10.8a14.9,14.9,0,0,1,3.227-4.64,6.819,6.819,0,0,1,5.283-1.856,4.243,4.243,0,0,1,3.783,3.663" transform="translate(-74.012 -83.744)" fill="url(#linear-gradient-11)"/>
        <path id="Path_202" data-name="Path 202" d="M337.223,275.312c-8.721,5.7-27.8,9.589-27.8,9.589l-109.139.448-.227-13.839-.2-14.921c2.317-.448,107.277-1.8,107.277-1.8a56.488,56.488,0,0,1,31.125,10.33C343.509,268.8,341.773,272.292,337.223,275.312Z" transform="translate(-64.195 -107.198)" fill="#00ffcb"/>
        <path id="Path_203" data-name="Path 203" d="M337.217,278.957c-8.721,5.7-27.8,9.589-27.8,9.589l-109.139.448-.463-13.79h.236c5.982-.228,107.007-.814,107.007-.814A106.507,106.507,0,0,1,337.217,278.957Z" transform="translate(-64.189 -110.843)" fill="url(#linear-gradient-12)"/>
        <path id="Path_204" data-name="Path 204" d="M158.873,179.918,147.49,164.15h11.678l25.244,15.263Z" transform="translate(-23.218 -30.527)" fill="#00ffcb"/>
        <path id="Path_205" data-name="Path 205" d="M159.553,218.2,148.17,233.715h11.678l25.244-15.263Z" transform="translate(-23.325 -40.578)" fill="#00ffcb"/>
        <path id="Path_206" data-name="Path 206" d="M158.873,179.918,147.49,164.15h11.678l25.244,15.263Z" transform="translate(-23.218 -30.527)" fill="url(#linear-gradient-13)"/>
        <path id="Path_207" data-name="Path 207" d="M159.553,218.2,148.17,233.715h11.678l25.244-15.263Z" transform="translate(-23.325 -40.578)" fill="url(#linear-gradient-14)"/>
        <rect id="Rectangle_7" data-name="Rectangle 7" width="5.039" height="30.526" transform="translate(140.247 147.641)" fill="url(#linear-gradient-15)"/>
        <rect id="Rectangle_8" data-name="Rectangle 8" width="5.039" height="30.526" transform="translate(240.193 147.641)" fill="url(#linear-gradient-16)"/>
      </g>
    </g>
  </g>
</svg>
