<svg xmlns="http://www.w3.org/2000/svg" xmlns:xlink="http://www.w3.org/1999/xlink" width="80" height="80" viewBox="0 0 80 80">
  <defs>
    <linearGradient id="linear-gradient" x1="0.497" y1="-0.809" x2="0.514" y2="7.387" gradientUnits="objectBoundingBox">
      <stop offset="0" stop-opacity="0"/>
      <stop offset="0.91" stop-opacity="0.8"/>
      <stop offset="1"/>
    </linearGradient>
    <linearGradient id="linear-gradient-2" x1="-0.001" y1="0.5" x2="0.999" y2="0.5" gradientUnits="objectBoundingBox">
      <stop offset="0" stop-color="#ecc4d7"/>
      <stop offset="0.42" stop-color="#efd4d1"/>
      <stop offset="1" stop-color="#f2eac9"/>
    </linearGradient>
    <linearGradient id="linear-gradient-3" x1="-0.944" y1="0.451" x2="5.58" y2="0.705" xlink:href="#linear-gradient"/>
    <linearGradient id="linear-gradient-4" x1="0" y1="0.5" x2="1" y2="0.5" xlink:href="#linear-gradient"/>
    <linearGradient id="linear-gradient-5" x1="0" y1="0.499" x2="1" y2="0.499" xlink:href="#linear-gradient-2"/>
    <linearGradient id="linear-gradient-6" x1="0" y1="0.501" x2="1" y2="0.501" xlink:href="#linear-gradient-2"/>
    <linearGradient id="linear-gradient-7" x1="0" y1="0.5" x2="0.999" y2="0.5" xlink:href="#linear-gradient-2"/>
    <linearGradient id="linear-gradient-8" x1="0" y1="0.5" x2="1" y2="0.5" xlink:href="#linear-gradient-2"/>
    <linearGradient id="linear-gradient-9" y1="0.5" x2="1" y2="0.5" gradientUnits="objectBoundingBox">
      <stop offset="0" stop-color="#fff" stop-opacity="0"/>
      <stop offset="0.84" stop-color="#fff" stop-opacity="0.839"/>
      <stop offset="0.97" stop-color="#fff"/>
    </linearGradient>
    <linearGradient id="linear-gradient-10" x1="0.972" y1="1.145" x2="-0.777" y2="-0.606" xlink:href="#linear-gradient"/>
    <linearGradient id="linear-gradient-11" x1="0" y1="0.5" x2="1" y2="0.5" xlink:href="#linear-gradient"/>
    <linearGradient id="linear-gradient-12" x1="1.431" y1="0.311" x2="-8.031" y2="1.748" xlink:href="#linear-gradient"/>
    <linearGradient id="linear-gradient-13" x1="0.001" y1="0.5" x2="1" y2="0.5" xlink:href="#linear-gradient"/>
    <linearGradient id="linear-gradient-14" x1="0.87" y1="0.02" x2="-0.674" y2="1.672" xlink:href="#linear-gradient"/>
    <linearGradient id="linear-gradient-15" x1="0.384" y1="0.501" x2="1.381" y2="0.501" xlink:href="#linear-gradient-2"/>
    <linearGradient id="linear-gradient-16" x1="0.532" y1="0.091" x2="0.463" y2="0.976" xlink:href="#linear-gradient"/>
    <linearGradient id="linear-gradient-17" x1="0.469" y1="-1.289" x2="0.549" y2="3.299" xlink:href="#linear-gradient"/>
  </defs>
  <g id="running" transform="translate(0 -0.003)">
    <ellipse id="Ellipse_2" data-name="Ellipse 2" cx="40" cy="37.33" rx="40" ry="37.33" transform="translate(0 3.098)" fill="#00ffcb" opacity="0.15"/>
    <path id="Path_32" data-name="Path 32" d="M113.7,358.045c-2.623.212-5.259-.082-7.892-.1a75.509,75.509,0,0,0-14.27,1.714c-.572.107-1.3.413-1.194.948.061.3.381.49.677.632,5.94,2.84,13.009,2.179,19.673,1.823,16.475-.889,33.068.508,49.472-1.172a2.613,2.613,0,0,0,1.988-.821,1.542,1.542,0,0,0-.779-2.052,5.415,5.415,0,0,0-2.53-.438l-12.54-.094,6.641-3.8c-1.483-.8-3.327-.636-5.032-.44-6.5.743-13.251,2.079-19.8,2.081C123.05,356.322,118.727,357.258,113.7,358.045Z" transform="translate(-82.591 -283.387)" fill="url(#linear-gradient)"/>
    <path id="Path_33" data-name="Path 33" d="M197.028,53.994s0,2.792-1.221,2.893a.714.714,0,0,0,0,1.1c.589.6.7,2.494.855,2.943s2.2.6,3.8.251,1.121,3.889,1.121,3.889a7.361,7.361,0,0,0,3.527-1.3l-.427-4.238s2.4-2.735,1.444-4.488-2.557-3.59-5.186-2.943S197.206,52.472,197.028,53.994Z" transform="translate(-162.104 -50.137)" fill="url(#linear-gradient-2)"/>
    <path id="Path_34" data-name="Path 34" d="M202.267,44.406s-2.687,1.306-2.316,2.355,2.2,1.5,2.833,2.642,1.121,1.995,1.121,1.995.589-.547.562-.647.562-1.272,1.256-1.021.427,1.669-.186,2.068.855,1.621.855,1.621l.906.6a2.637,2.637,0,0,0,1.275-.625c.786-.6,2.245-1.824,2.03-3.191a20.06,20.06,0,0,0-.713-2.89,12.414,12.414,0,0,0-.64-1.8C206.978,42.847,202.267,44.406,202.267,44.406Z" transform="translate(-165.403 -43.95)"/>
    <path id="Path_35" data-name="Path 35" d="M240.353,50.453c.43-.873,2.443-1.165,3.82-.547a6.173,6.173,0,0,1,1.6,1.347c1.3,1.293,1.512,1.954,2.565,2.394.55.228,1.109.3,1.1.374-.022.116-1.553-.383-2.164.2-.535.508.171,1.324.132,3.018a4.815,4.815,0,0,1-1.414,3.49c-.672.586-1.585.937-1.817.723-.288-.264.645-1.233.266-1.719s-1.422.025-1.844-.5c-.169-.212-.107-.431-.078-.973,0,0,.015-.28-.107-1.97a12.9,12.9,0,0,0-1.256-3.465C240.368,51.041,240.177,50.813,240.353,50.453Z" transform="translate(-195.917 -48.292)"/>
    <path id="Path_36" data-name="Path 36" d="M204.932,100.637s3.925-1.331,5.386.228-.349,7.048-.281,8.911-.782,6.98,0,8.51-5.7,5.519-7.269,4.331a3.919,3.919,0,0,1-1.732-2.359c-.071-.2-.222-9.405-.366-9.67a5.3,5.3,0,0,1-.716-2.735C200.171,106.978,204.106,102.59,204.932,100.637Z" transform="translate(-165.403 -87.304)" fill="#00ffcb"/>
    <path id="Path_37" data-name="Path 37" d="M205.042,79.78a11.042,11.042,0,0,0-1.341,5.052c.154,2.35-2.2,5.45-2.2,5.45a7.208,7.208,0,0,0-1.163,3.025c-.105,1.5.183,10.333,4.4,10.855s2.081.207,2.081.207" transform="translate(-165.711 -71.61)" fill="none" stroke="#000" stroke-linecap="round" stroke-miterlimit="10" stroke-width="1"/>
    <path id="Path_38" data-name="Path 38" d="M221.353,118.29c.684,1.336-4.179,4.559-6.463,4.543,1.837-1.053,3.437-2.537,3.026-3.342-.782-1.53.068-6.65,0-8.512s1.742-7.347.281-8.909a3.1,3.1,0,0,0-2.294-.761,6.053,6.053,0,0,0,.344-.672s3.925-1.331,5.386.228-.349,7.048-.281,8.911S220.571,116.76,221.353,118.29Z" transform="translate(-176.719 -87.304)" fill="url(#linear-gradient-3)"/>
    <path id="Path_39" data-name="Path 39" d="M216.837,208.3l-1.2,3.011-14.013-4.931-.305-.139-.1-.046c-.09-.043-.193-.091-.305-.148l-.452-.228h0c-.208-.1-.435-.228-.681-.353l-.161-.089q-1.342-.726-2.6-1.577c-.061-.041-.122-.082-.183-.128-.178-.123-.357-.251-.533-.381q-.469-.342-.916-.716c-.1-.084-.2-.169-.3-.258s-.244-.216-.369-.33A11.572,11.572,0,0,1,193.5,200.7h0c-.132-.166-.259-.335-.374-.508-.078-.114-.154-.228-.225-.349,0,0-1.529,4.488-1.529,4.821s-.789,8.56-3.639,13.415l-.652,1.527-.061.139-2.848-1.329L185.452,199l4.152-16.185s5.955-.7,8.534-2.893c0,0,2.152,3.392,2.472,4.039a18.858,18.858,0,0,1-.488,8.229c-.977,2.843,3.134,8.943,4.345,9.075S216.837,208.3,216.837,208.3Z" transform="translate(-153.503 -148.923)" fill="#00ffcb"/>
    <path id="Path_40" data-name="Path 40" d="M216.837,208.3l-.6,1.5-.6,1.5-14.011-4.924-.305-.139-.1-.046c-.09-.043-.193-.091-.305-.148s-.288-.139-.452-.228h0c-.208-.1-.437-.228-.681-.353l-.161-.089a29.355,29.355,0,0,1-2.6-1.577c-.061-.041-.122-.082-.183-.128-.178-.121-.357-.249-.533-.381q-.469-.342-.916-.716c-.1-.084-.2-.169-.3-.258s-.244-.216-.369-.33A12.041,12.041,0,0,1,193.5,200.7h0c-.129-.166-.257-.337-.374-.508-.078-.114-.154-.228-.225-.349,0,0-1.529,4.488-1.529,4.821s-.789,8.56-3.639,13.415l-.652,1.527-.061.139-2.848-1.329L185.452,199l4.152-16.185a27.615,27.615,0,0,0,5.95-1.45,9.271,9.271,0,0,0,2.584-1.443s2.152,3.392,2.472,4.039a18.858,18.858,0,0,1-.488,8.229c-.977,2.843,3.134,8.943,4.345,9.075S216.837,208.3,216.837,208.3Z" transform="translate(-153.503 -148.923)" fill="url(#linear-gradient-4)"/>
    <path id="Path_41" data-name="Path 41" d="M243.584,126.284c-1.155.6-4.927,3.326-4.927,3.326l-.2-1.742-.325-2.774,1.075-5h0l.506-2.355,4.345,5.943S245.143,125.472,243.584,126.284Z" transform="translate(-194.283 -100.917)" fill="url(#linear-gradient-5)"/>
    <path id="Path_42" data-name="Path 42" d="M182.3,349.11l-.831,1.616a2.942,2.942,0,0,0,2.511,1.094l.855-1.682Z" transform="translate(-151.463 -279.545)" fill="url(#linear-gradient-6)"/>
    <path id="Path_43" data-name="Path 43" d="M157.494,354.422l-.337,2.977s-.642.729-1.221.531-2.78-.6-3.175-.666-5.523-1.263-6.768-3.59c-.3-.561-.354-.912-.244-1.14.34-.684,2.279.025,3.09.132,1.07.139,3.3.228,3.3.228a7.841,7.841,0,0,1,2.086-.187c.34.155.489.456.733.782s1.673.948,1.976.748S157.494,354.422,157.494,354.422Z" transform="translate(-124.426 -281.961)" fill="#00ffcb"/>
    <path id="Path_44" data-name="Path 44" d="M313.75,306.966s1.541,1.028,1.6,1.653,1.922.568,2-.827a3.508,3.508,0,0,0-.615-2.266l-1.954-1.106Z" transform="translate(-251.432 -245.042)" fill="url(#linear-gradient-7)"/>
    <path id="Path_45" data-name="Path 45" d="M324.65,313.7a3.338,3.338,0,0,1-1.036.832h0l-.051.032c-.354.21-.652.362-.652.362a4.186,4.186,0,0,1-1.356-.365c-.569-.3-.391-1.928-.437-2.428s-1.983-2.626-2.306-3.159.3-1.153.3-1.153l.642-3.511.259-.483c.274-.488,2.78-.433,2.78-.433a1.757,1.757,0,0,1,1,.433c.32.367.215,2.758.178,3.091a11.734,11.734,0,0,0,.677,3.392A6.486,6.486,0,0,1,324.65,313.7Z" transform="translate(-255.187 -244.248)" fill="#00ffcb"/>
    <path id="Path_46" data-name="Path 46" d="M176.09,102.093s-4.06,6.515-4.81,7.347-3.1.3-4.487-.228a44.957,44.957,0,0,0-6.485-1.4c-.322.032-2.064.034-2.2,0s-.962-.864-1.163-.964c-.073-.036-.068-.217-.039-.479a5.774,5.774,0,0,0,.064-1.714,1.155,1.155,0,0,1,.711-1.265s1.5.4,1.746.1a1,1,0,0,1,.9-.189.6.6,0,0,1,.379.228c.073.114.2.356.33.62.244.506.525,1.108.525,1.108s5.337,1.443,7.191.777,2.931-5.963,3.664-7.826,3.3-1.728,3.3-1.728a3.008,3.008,0,0,1,.882.308C178.938,98.1,176.09,102.093,176.09,102.093Z" transform="translate(-132.885 -84.504)" fill="url(#linear-gradient-8)"/>
    <path id="Path_47" data-name="Path 47" d="M175.272,100.891s-4.062,6.517-4.809,7.347-3.1.3-4.49-.228a44.334,44.334,0,0,0-6.483-1.4c-.32.034-2.066.032-2.2,0a1.516,1.516,0,0,1-.322-.244,5.776,5.776,0,0,0,.064-1.714,1.155,1.155,0,0,1,.711-1.265s1.5.4,1.746.1a1,1,0,0,1,.9-.189c.188.4.352.752.352.752l.357.091c.244.506.525,1.108.525,1.108s5.337,1.443,7.191.777,2.931-5.963,3.664-7.826,3.3-1.723,3.3-1.723a3.007,3.007,0,0,1,.882.308C176.99,98.479,175.272,100.891,175.272,100.891Z" transform="translate(-132.947 -84.503)" opacity="0.44" fill="url(#linear-gradient-9)"/>
    <path id="Path_48" data-name="Path 48" d="M239.231,52.353a.447.447,0,0,1,.369-.023c.139.075.147.253.156.4a3.94,3.94,0,0,0,.127.709.777.777,0,0,1,.024.456.28.28,0,0,1-.145.168.315.315,0,0,1-.231.019.39.39,0,0,1-.173-.239c-.107-.278-.217-.556-.3-.841a1.666,1.666,0,0,1-.107-.431C238.948,52.42,239.1,52.4,239.231,52.353Z" transform="translate(-194.903 -50.395)" fill="#00ffcb"/>
    <path id="Path_49" data-name="Path 49" d="M192.895,209.62s-1.529,4.489-1.529,4.821-.784,8.576-3.635,13.431l-.652,1.527-.2-.08-2.706-1.11,1.282-19.415L189.6,192.61Z" transform="translate(-153.503 -158.72)" fill="url(#linear-gradient-10)"/>
    <path id="Path_50" data-name="Path 50" d="M252.055,208.239l-.6,1.5s-11.329-4.917-13.346-6.456-6.326-5.735-5.96-9.073-1.378-12.927-1.378-12.927a9.272,9.272,0,0,0,2.584-1.443s2.152,3.392,2.472,4.039a18.858,18.858,0,0,1-.488,8.229c-.977,2.843,3.134,8.943,4.345,9.075S252.055,208.239,252.055,208.239Z" transform="translate(-188.721 -148.861)" fill="url(#linear-gradient-11)"/>
    <path id="Path_51" data-name="Path 51" d="M241.1,133.71a20.655,20.655,0,0,0-2.648,2.134l-.325-2.774,1.075-5h0s1.954,2.8,2.308,3.588S241.791,133.388,241.1,133.71Z" transform="translate(-194.283 -108.892)" fill="url(#linear-gradient-12)"/>
    <path id="Path_52" data-name="Path 52" d="M157.167,358.395s-.642.729-1.221.531-2.78-.6-3.175-.666S147.247,357,146,354.67c-.3-.561-.354-.912-.244-1.14.269.419,1.556,2.147,5.191,3.212C155.125,357.968,157.167,358.395,157.167,358.395Z" transform="translate(-124.434 -282.957)" fill="url(#linear-gradient-13)"/>
    <path id="Path_53" data-name="Path 53" d="M337.272,313.706a3.342,3.342,0,0,1-1.036.832c.708-.4.266-4.131-.193-5.371a33.782,33.782,0,0,1-.623-5.767,1.757,1.757,0,0,1,1,.433c.32.367.215,2.758.178,3.091a11.735,11.735,0,0,0,.677,3.392A6.485,6.485,0,0,1,337.272,313.706Z" transform="translate(-267.809 -244.255)" fill="url(#linear-gradient-14)"/>
    <path id="Path_54" data-name="Path 54" d="M220.415,72.265s0-.524.23-.631a.309.309,0,0,1,.379.44c-.127.3-.413,1.005-.608.887S220.027,72.917,220.415,72.265Z" transform="translate(-180.725 -65.301)" fill="url(#linear-gradient-15)"/>
    <ellipse id="Ellipse_3" data-name="Ellipse 3" cx="0.405" cy="0.378" rx="0.405" ry="0.378" transform="translate(39.648 7.037)" fill="none"/>
    <ellipse id="Ellipse_4" data-name="Ellipse 4" cx="0.405" cy="0.378" rx="0.405" ry="0.378" transform="translate(39.519 7.037)"/>
    <ellipse id="Ellipse_5" data-name="Ellipse 5" cx="0.237" cy="0.221" rx="0.237" ry="0.221" transform="translate(39.719 7.194)" fill="#00ffcb"/>
    <path id="Path_55" data-name="Path 55" d="M219.684,76.61l-.244.625s0,.164.154.119a3.705,3.705,0,0,0,.616-.426Z" transform="translate(-180.158 -69.163)"/>
    <path id="Path_56" data-name="Path 56" d="M.9-.023,2-.009a.93.93,0,0,1,.94.883l.024,1.733a.873.873,0,0,1-.916.859l-1.1-.014A.93.93,0,0,1,0,2.568L-.019.836A.873.873,0,0,1,.9-.023Z" transform="translate(39.605 31.82) rotate(-11.2)" fill="#00ffcb"/>
    <path id="Path_57" data-name="Path 57" d="M.9-.023,2-.009a.93.93,0,0,1,.94.883l.024,1.733a.873.873,0,0,1-.916.859l-1.1-.014A.93.93,0,0,1,0,2.568L-.019.836A.873.873,0,0,1,.9-.023Z" transform="translate(39.605 31.82) rotate(-11.2)" fill="url(#linear-gradient-16)"/>
    <path id="Path_58" data-name="Path 58" d="M.77-.02l.948.012A.8.8,0,0,1,2.525.75l.02,1.486a.749.749,0,0,1-.787.737L.81,2.96A.8.8,0,0,1,0,2.2L-.017.717A.749.749,0,0,1,.77-.02Z" transform="translate(39.865 31.928) rotate(-11.2)" fill="url(#linear-gradient-17)"/>
    <path id="Path_59" data-name="Path 59" d="M.359-.009,1.823.009A.372.372,0,0,1,2.2.363a.349.349,0,0,1-.367.344L.369.688A.372.372,0,0,1-.008.334.349.349,0,0,1,.359-.009Z" transform="translate(40.1 32.287) rotate(-11.2)" fill="#00ffcb"/>
    <path id="Path_60" data-name="Path 60" d="M.306-.008,1.551.008a.317.317,0,0,1,.321.3A.3.3,0,0,1,1.559.6L.314.586a.317.317,0,0,1-.321-.3A.3.3,0,0,1,.306-.008Z" transform="translate(40.249 32.303) rotate(-11.2)" fill="#fff" opacity="0.62"/>
  </g>
</svg>
