<svg xmlns="http://www.w3.org/2000/svg" xmlns:xlink="http://www.w3.org/1999/xlink" width="80" height="80" viewBox="0 0 80 80">
  <defs>
    <linearGradient id="linear-gradient" x1="0.142" y1="-0.811" x2="0.477" y2="0.452" gradientUnits="objectBoundingBox">
      <stop offset="0" stop-opacity="0"/>
      <stop offset="0.91" stop-opacity="0.8"/>
      <stop offset="1"/>
    </linearGradient>
    <linearGradient id="linear-gradient-2" x1="0.468" y1="-0.526" x2="0.509" y2="0.475" xlink:href="#linear-gradient"/>
    <linearGradient id="linear-gradient-3" y1="0.501" x2="1" y2="0.501" gradientUnits="objectBoundingBox">
      <stop offset="0" stop-color="#ecc4d7"/>
      <stop offset="0.42" stop-color="#efd4d1"/>
      <stop offset="1" stop-color="#f2eac9"/>
    </linearGradient>
    <linearGradient id="linear-gradient-4" x1="-0.263" y1="0.384" x2="4.697" y2="1.246" xlink:href="#linear-gradient-3"/>
    <linearGradient id="linear-gradient-5" x1="-0.206" y1="0.361" x2="4.562" y2="1.147" xlink:href="#linear-gradient-3"/>
    <linearGradient id="linear-gradient-6" x1="0" y1="-0.114" x2="1" y2="-0.114" xlink:href="#linear-gradient-3"/>
    <linearGradient id="linear-gradient-7" x1="0.342" y1="0.272" x2="0.701" y2="0.71" xlink:href="#linear-gradient-3"/>
    <linearGradient id="linear-gradient-8" x1="0" y1="0.474" x2="1" y2="0.474" xlink:href="#linear-gradient-3"/>
    <linearGradient id="linear-gradient-9" x1="0.503" y1="0.372" x2="0.538" y2="0.974" xlink:href="#linear-gradient"/>
    <linearGradient id="linear-gradient-10" x1="0" y1="0.5" x2="1" y2="0.5" xlink:href="#linear-gradient-3"/>
    <linearGradient id="linear-gradient-11" x1="0.948" y1="-0.222" x2="-0.642" y2="1.625" xlink:href="#linear-gradient-3"/>
    <linearGradient id="linear-gradient-12" x1="0.284" y1="0.503" x2="1.148" y2="0.495" gradientUnits="objectBoundingBox">
      <stop offset="0" stop-opacity="0"/>
      <stop offset="0.88" stop-opacity="0.8"/>
      <stop offset="0.97"/>
    </linearGradient>
    <linearGradient id="linear-gradient-13" x1="0.361" y1="0.508" x2="-0.26" y2="0.532" xlink:href="#linear-gradient-12"/>
    <linearGradient id="linear-gradient-14" x1="-0.752" y1="0.761" x2="2.991" y2="-0.033" xlink:href="#linear-gradient-12"/>
    <linearGradient id="linear-gradient-15" x1="0.763" y1="0.109" x2="-0.099" y2="1.219" xlink:href="#linear-gradient-12"/>
    <linearGradient id="linear-gradient-16" x1="0.727" y1="0.129" x2="-0.134" y2="1.358" xlink:href="#linear-gradient-12"/>
    <linearGradient id="linear-gradient-17" x1="-0.007" y1="0.701" x2="1.271" y2="0.13" gradientUnits="objectBoundingBox">
      <stop offset="0" stop-color="#fff" stop-opacity="0"/>
      <stop offset="0.84" stop-color="#fff" stop-opacity="0.839"/>
      <stop offset="0.97" stop-color="#fff"/>
    </linearGradient>
    <linearGradient id="linear-gradient-18" x1="0" y1="0.5" x2="1" y2="0.5" xlink:href="#linear-gradient-17"/>
    <linearGradient id="linear-gradient-19" x1="0.315" y1="0.951" x2="0.853" y2="-0.375" xlink:href="#linear-gradient-12"/>
    <linearGradient id="linear-gradient-20" x1="0.455" y1="0.229" x2="0.586" y2="0.874" xlink:href="#linear-gradient-12"/>
    <linearGradient id="linear-gradient-21" x1="1.18" y1="-0.883" x2="-0.972" y2="3.417" xlink:href="#linear-gradient-17"/>
    <linearGradient id="linear-gradient-22" x1="0.892" y1="0.593" x2="-0.065" y2="0.366" xlink:href="#linear-gradient-12"/>
    <linearGradient id="linear-gradient-23" x1="0.764" y1="0.308" x2="-0.151" y2="0.981" xlink:href="#linear-gradient"/>
    <linearGradient id="linear-gradient-24" x1="0.527" y1="-2.327" x2="0.464" y2="4.248" xlink:href="#linear-gradient"/>
    <linearGradient id="linear-gradient-25" x1="0.569" y1="-1.583" x2="0.4" y2="3.548" xlink:href="#linear-gradient"/>
    <linearGradient id="linear-gradient-26" x1="0.882" y1="-1.738" x2="0.198" y2="2.622" xlink:href="#linear-gradient-17"/>
    <linearGradient id="linear-gradient-27" x1="0.687" y1="-1.729" x2="0.005" y2="2.736" xlink:href="#linear-gradient-17"/>
    <linearGradient id="linear-gradient-28" x1="0.515" y1="-2.139" x2="-0.164" y2="2.328" xlink:href="#linear-gradient-17"/>
    <linearGradient id="linear-gradient-29" x1="-0.495" y1="-2.682" x2="-1.174" y2="1.783" xlink:href="#linear-gradient-17"/>
    <linearGradient id="linear-gradient-30" x1="1.695" y1="-1.547" x2="1.146" y2="2.638" xlink:href="#linear-gradient-17"/>
    <linearGradient id="linear-gradient-31" x1="1.677" y1="-0.11" x2="1.129" y2="4.049" xlink:href="#linear-gradient-17"/>
    <linearGradient id="linear-gradient-32" x1="0.792" y1="3.024" x2="0.242" y2="7.193" xlink:href="#linear-gradient-17"/>
    <linearGradient id="linear-gradient-33" x1="1.038" y1="0.008" x2="0.492" y2="4.186" xlink:href="#linear-gradient-17"/>
    <linearGradient id="linear-gradient-34" x1="2.578" y1="3.43" x2="2.031" y2="7.596" xlink:href="#linear-gradient-17"/>
    <linearGradient id="linear-gradient-35" x1="-0.093" y1="5.076" x2="-0.64" y2="9.248" xlink:href="#linear-gradient-17"/>
    <linearGradient id="linear-gradient-36" x1="0.739" y1="0.18" x2="-0.338" y2="0.973" xlink:href="#linear-gradient-17"/>
    <linearGradient id="linear-gradient-37" x1="0" y1="0.5" x2="1" y2="0.5" xlink:href="#linear-gradient-17"/>
    <linearGradient id="linear-gradient-38" x1="0.49" y1="-0.75" x2="0.526" y2="3.81" xlink:href="#linear-gradient-17"/>
    <linearGradient id="linear-gradient-39" x1="0" y1="0.5" x2="1" y2="0.5" xlink:href="#linear-gradient-17"/>
    <linearGradient id="linear-gradient-40" x1="0" y1="0.5" x2="1" y2="0.5" xlink:href="#linear-gradient-17"/>
    <linearGradient id="linear-gradient-41" x1="0.986" y1="0.397" x2="0.241" y2="0.568" xlink:href="#linear-gradient-17"/>
    <linearGradient id="linear-gradient-42" x1="0.923" y1="0.415" x2="0.246" y2="0.552" xlink:href="#linear-gradient-17"/>
    <linearGradient id="linear-gradient-44" x1="0.923" y1="0.415" x2="0.246" y2="0.552" xlink:href="#linear-gradient-17"/>
    <linearGradient id="linear-gradient-45" x1="9.33" y1="0.72" x2="8.653" y2="0.859" xlink:href="#linear-gradient-17"/>
    <linearGradient id="linear-gradient-46" x1="1.002" y1="-0.569" x2="-0.292" y2="2.187" xlink:href="#linear-gradient-17"/>
    <linearGradient id="linear-gradient-47" x1="1.002" y1="-0.569" x2="-0.291" y2="2.187" xlink:href="#linear-gradient-17"/>
    <linearGradient id="linear-gradient-48" x1="0.922" y1="0.415" x2="0.245" y2="0.552" xlink:href="#linear-gradient-17"/>
    <linearGradient id="linear-gradient-53" x1="0.794" y1="0.497" x2="-0.86" y2="0.53" xlink:href="#linear-gradient-17"/>
    <linearGradient id="linear-gradient-54" x1="0" y1="0.5" x2="1" y2="0.5" xlink:href="#linear-gradient-17"/>
  </defs>
  <g id="surfing" transform="translate(0.037 0.001)">
    <path id="Path_61" data-name="Path 61" d="M177.828,109.623c1.644-2.524,4.832-4.274,5.458-7.155.727-3.354-2.393-6.474-2.393-9.893,0-2.167,1.252-4.15,1.841-6.25a9.944,9.944,0,0,0-2-9.087,10.89,10.89,0,0,0-9.278-3.575c-1.929.225-3.737.974-5.638,1.341a14.527,14.527,0,0,1-7.836-.671c-2.283-.869-4.322-2.326-6.752-2.748a13.043,13.043,0,0,0-7.363,1.308c-11.166,4.938-17.633,17.374-14.754,28.373s14.8,19.448,27.218,19.265a59.869,59.869,0,0,0,9.278-1.1c2.665-.456,8.245-.369,10.207-2.27C177.694,115.335,176.352,111.891,177.828,109.623Z" transform="translate(-112.783 -59.686)" fill="#00ffcb" opacity="0.19"/>
    <path id="Path_62" data-name="Path 62" d="M330.46,158.543l.736-.521s1.491-2.613,1.058-3.761" transform="translate(-277.625 -128.604)" fill="url(#linear-gradient)"/>
    <path id="Path_63" data-name="Path 63" d="M277.532,194.4s-.131,1.105-2.108,1.611a15.6,15.6,0,0,1-3.531.5l-.333-1.061Z" transform="translate(-229.567 -162.013)" fill="#00ffcb"/>
    <path id="Path_64" data-name="Path 64" d="M277.532,194.4s-.131,1.105-2.108,1.611a15.6,15.6,0,0,1-3.531.5l-.333-1.061Z" transform="translate(-229.567 -162.013)" fill="url(#linear-gradient-2)"/>
    <path id="Path_65" data-name="Path 65" d="M209.238,82.192c-.552.89-2.2.709-5.134-.07-.455-.121-.839-.218-1.162-.3a.913.913,0,0,0-.752.146.745.745,0,0,0-.313.64c.022.431.042.867.092,1.3a14.628,14.628,0,0,0,1.738,5.366,1.072,1.072,0,0,1,.184.543c-.015.392-.457.646-.86.795a12.272,12.272,0,0,1-5.763.453,3.255,3.255,0,0,1-1.775-.617,2.144,2.144,0,0,1-.552-.865c-.061-.154-.114-.31-.162-.466a.476.476,0,0,0-.018-.069,29.025,29.025,0,0,1-1.1-5.312.719.719,0,0,0-.3-.51.865.865,0,0,0-.616-.149.815.815,0,0,0-.39.154c-1.69,1.241-3.365,2.5-4.935,3.872A13.83,13.83,0,0,1,185,88.965a5.227,5.227,0,0,0-1.042.739,2.195,2.195,0,0,0-.326.335c-.184.258-.25.582-.436.838-.055.079-.156.168-.249.116a.2.2,0,0,1-.088-.153.833.833,0,0,1,.042-.491c.024-.059.037-.089.037-.091s-.1.168-.085.023c0-.072-.024-.168-.1-.176a.192.192,0,0,0-.12.05,8.755,8.755,0,0,0-1.289,1.226c-.1.178-.326-.143.423-1.066,0,0-.033-.069-.083-.025-.2.168-.736.758-.92.889-.136.1-.219-.05-.158-.168s.447-.518.79-.927c-.158-.02-.972,1.006-1.163.921-.037-.015-.035-.07-.029-.107a.533.533,0,0,1,.169-.29l.736-.817c-.156.02-.793.515-.911.421-.272-.215.668-.738.814-.786s.891-.491,1.029-.575c.315-.2.642-.372.968-.555,3.4-1.907,5.673-5.069,8.545-7.593a7.327,7.327,0,0,1,3.582-1.476c.193-.022.387-.042.582-.059a2.151,2.151,0,0,0,.657-1.174c.1-.416.245-2.135.893-2.135.532,0,.989,1.538,1.09,1.94a2.629,2.629,0,0,1,.052.689c0,.248-.075.538.3.632a1.386,1.386,0,0,0,.431.03h.048c.58.049,1.158.121,1.73.218,0,0,1.819.563,2.807.827,1.254.335,3.781,1.026,3.7.527a3.087,3.087,0,0,0-.955-2.034c-.145-.106-1.71-.838-1.71-.838a.257.257,0,0,1,.387-.189,1.221,1.221,0,0,0,.81.069,2.484,2.484,0,0,0-1.607-.684c-.9-.084-.457-.389.074-.567a2.791,2.791,0,0,1,2.115.168c.289.168.5.931.779,1.162C207.638,78.087,209.788,81.3,209.238,82.192Z" transform="translate(-154.978 -63.35)" fill="url(#linear-gradient-3)"/>
    <path id="Path_66" data-name="Path 66" d="M253.513,122.9l-2.675.335-.283-.776a29.025,29.025,0,0,1-1.1-5.312.719.719,0,0,0-.3-.51.865.865,0,0,0-.616-.149s1.572-.916,2.286-.248S253.513,122.9,253.513,122.9Z" transform="translate(-210.776 -96.757)" fill="url(#linear-gradient-4)"/>
    <path id="Path_67" data-name="Path 67" d="M272.9,86.235a.992.992,0,0,0,.878.632c.171,0,.368-.1.368-.26a.664.664,0,0,0-.077-.226.774.774,0,0,1-.028-.312l.039-.944a.618.618,0,0,0-.066-.381.534.534,0,0,0-.243-.176c-.339-.146-1-.136-1.145.245A2.7,2.7,0,0,0,272.9,86.235Z" transform="translate(-230.406 -70.526)" fill="url(#linear-gradient-5)"/>
    <path id="Path_68" data-name="Path 68" d="M283.368,95.583h-.018A.03.03,0,0,1,283.368,95.583Z" transform="translate(-239.162 -79.765)" fill="url(#linear-gradient-6)"/>
    <path id="Path_69" data-name="Path 69" d="M274.495,59.358a3.788,3.788,0,0,1-2.075,2.467,1.867,1.867,0,0,1-1.119.213,1.588,1.588,0,0,1-.514-.206,3.039,3.039,0,0,1-1.289-2.594,2.988,2.988,0,0,1,1.035-2.577,3.043,3.043,0,0,1,1.047-.47,2.844,2.844,0,0,1,2.907.741C275.053,57.554,274.683,58.585,274.495,59.358Z" transform="translate(-227.883 -46.882)" fill="url(#linear-gradient-7)"/>
    <path id="Path_70" data-name="Path 70" d="M265.542,49.551a.411.411,0,0,1-.118.4.541.541,0,0,1-.331.074,8.505,8.505,0,0,1-1.618-.349,1.958,1.958,0,0,0-1.59.186,1.322,1.322,0,0,0-.457.711,3.585,3.585,0,0,0-.1.828c-.2-.013-.184-.366-.385-.4-.109-.018-.2.077-.25.168a1.155,1.155,0,0,0,0,1.164.561.561,0,0,1,.122.282c0,.146-.151.252-.282.335a.221.221,0,0,1-.121.047c-.079,0-.129-.075-.164-.141a3.562,3.562,0,0,0-.736-1.066c-.284-.253-.665-.434-.836-.76a.376.376,0,0,1-.048-.268.22.22,0,0,1,.219-.168,1.578,1.578,0,0,1,.168.049c.057.012.134-.012.14-.065a.119.119,0,0,0-.048-.089,2.509,2.509,0,0,0-.552-.416.539.539,0,0,1-.206-.168.391.391,0,0,1-.052-.168c-.026-.206.04-.473.265-.5a.732.732,0,0,1,.228.027,1.332,1.332,0,0,0,.8-.151.176.176,0,0,0,.088-.082c.039-.1-.1-.168-.175-.248-.131-.144-.018-.381.164-.466a1.144,1.144,0,0,1,.6-.045,1.135,1.135,0,0,0,.606-.047c-.138-.191-.506-.243-.514-.471a.281.281,0,0,1,.249-.246.75.75,0,0,1,.387.062c.239.1.455.236.692.335a1.151,1.151,0,0,0,.76.087c.14-.042.261-.122.4-.168a.847.847,0,0,1,.681.07,2.484,2.484,0,0,1,.409.364.731.731,0,0,0,.5.238q.1-.01.2-.01c.247.02.355.28.51.418A.925.925,0,0,1,265.542,49.551Z" transform="translate(-218.741 -39.742)" fill="#25233a"/>
    <path id="Path_71" data-name="Path 71" d="M281.411,95.42a1.387,1.387,0,0,1-.431-.03Q281.2,95.4,281.411,95.42Z" transform="translate(-237.253 -79.605)" fill="url(#linear-gradient-8)"/>
    <path id="Path_72" data-name="Path 72" d="M267.093,149.993v-.5a18.68,18.68,0,0,1-5.254,1.243,20.025,20.025,0,0,0-3.75.387l.528.82S265.948,151.561,267.093,149.993Z" transform="translate(-218.577 -124.633)" fill="#00ffcb"/>
    <path id="Path_73" data-name="Path 73" d="M267.093,149.993v-.5a18.68,18.68,0,0,1-5.254,1.243,20.025,20.025,0,0,0-3.75.387l.528.82S265.948,151.561,267.093,149.993Z" transform="translate(-218.577 -124.633)" fill="url(#linear-gradient-9)"/>
    <path id="Path_74" data-name="Path 74" d="M264.242,156.15c-.9.039-1.8-.015-2.689.074a.76.76,0,0,0-.4.121.59.59,0,0,0-.175.444c-.1,1.7,1.252,3.144,2.233,4.6a2.132,2.132,0,0,1,.416.917,2.2,2.2,0,0,1-.274,1.135,27.068,27.068,0,0,1-2.08,3.783,4.759,4.759,0,0,0,3.95-1.471,7.4,7.4,0,0,0,.849-1.234,7.577,7.577,0,0,0,1.035-2.39c.166-.9.88-2.743.727-3.642,2.7-.158,6.942-.755,8.784,1.276a5.145,5.145,0,0,1,1.014,2.383,16.465,16.465,0,0,0,2.927-.79c.138-.052.3-.126.324-.262a.4.4,0,0,0-.1-.292l-1.83-2.648a2.442,2.442,0,0,0-.51-.592,4.791,4.791,0,0,0-3.207-1.544c-1.379-.25-5.727-1.3-6.327-1.041A12.465,12.465,0,0,1,264.242,156.15Z" transform="translate(-220.926 -129.164)" fill="url(#linear-gradient-10)"/>
    <path id="Path_75" data-name="Path 75" d="M303.323,180.916l-2.953-1.536L301.629,182l3.328-1.056Z" transform="translate(-245.109 -149.302)" fill="url(#linear-gradient-11)"/>
    <path id="Path_76" data-name="Path 76" d="M261.3,159.174a.41.41,0,0,0,.184.277.473.473,0,0,0,.285,0l5.686-1.048a5.489,5.489,0,0,0-.5-2.425,26.76,26.76,0,0,1,5.373-.023,45.639,45.639,0,0,0,1.8-4.283,41.775,41.775,0,0,0-4.5-.5,4.33,4.33,0,0,0-1.011.025,5.905,5.905,0,0,0-1.386.54,12.136,12.136,0,0,1-3.9.973c-1.04.1-2.658-.2-3.516.464C257.993,154.578,260.851,157.719,261.3,159.174Z" transform="translate(-219.493 -126.015)" fill="#00ffcb"/>
    <path id="Path_77" data-name="Path 77" d="M87.139,63.971c-5.209-1.5-10.377-3.365-14.726-6.385s-7.816-7.32-8.7-12.229c-.952-5.294,1.224-10.787,4.915-14.969S77.394,23.2,82.7,20.876c.78-.335,1.694-.854,1.642-1.64-.077-1.174-1.957-1.226-3.177-.86a74.674,74.674,0,0,0-14.073,6.258c-4.068,2.213-8.114,4.569-11.343,7.729a40.558,40.558,0,0,0-8.026,12.206c-2.866,6.162-5.108,12.8-4.335,19.46a33.54,33.54,0,0,0,3.639,11.029A35.505,35.505,0,0,0,55.532,86.51a34.93,34.93,0,0,0,9.2,5.4,42.687,42.687,0,0,0,16.153,3.428,35.359,35.359,0,0,0,20.249-6.288c3.656-2.582,6.776-6,8.007-10.061a9.3,9.3,0,0,0-7.035-11.845c-.884-.183-1.795-.241-2.677-.436" transform="translate(-43.27 -15.338)" fill="#00ffcb"/>
    <path id="Path_78" data-name="Path 78" d="M87.139,63.971c-5.209-1.5-10.377-3.365-14.726-6.385s-7.816-7.32-8.7-12.229c-.952-5.294,1.224-10.787,4.915-14.969S77.394,23.2,82.7,20.876c.78-.335,1.694-.854,1.642-1.64-.077-1.174-1.957-1.226-3.177-.86a74.674,74.674,0,0,0-14.073,6.258c-4.068,2.213-8.114,4.569-11.343,7.729a40.558,40.558,0,0,0-8.026,12.206c-2.866,6.162-5.108,12.8-4.335,19.46a33.54,33.54,0,0,0,3.639,11.029A35.505,35.505,0,0,0,55.532,86.51a34.93,34.93,0,0,0,9.2,5.4,42.687,42.687,0,0,0,16.153,3.428,35.359,35.359,0,0,0,20.249-6.288c3.656-2.582,6.776-6,8.007-10.061a9.3,9.3,0,0,0-7.035-11.845c-.884-.183-1.795-.241-2.677-.436" transform="translate(-43.27 -15.338)" fill="url(#linear-gradient-12)"/>
    <path id="Path_79" data-name="Path 79" d="M110.2,94.67s-21.8,13.973-18.084,31.262c7.744,35.949,32.871,17.255,32.871,17.255s-9.217,3.087-15.82-1.845C98.118,133.1,89.753,112.866,110.2,94.67Z" transform="translate(-82.805 -79.006)" fill="url(#linear-gradient-13)"/>
    <path id="Path_80" data-name="Path 80" d="M103.233,53.569c-1.213.884-1.9,2.331-3.28,2.975-.357.168-.746.27-1.09.456a2.921,2.921,0,0,0-1.322,1.63c-.123.345-.184.708-.339,1.046a5.669,5.669,0,0,1-1.366,1.737,36.954,36.954,0,0,0-5.719,6.478,32.584,32.584,0,0,0-2.087,4.167,28.447,28.447,0,0,1,5.585-5.478l3.451-2.812,9.267-7.546a20.58,20.58,0,0,1,2.089-1.558,7.061,7.061,0,0,0,2.089-1.551c.368-.493.6-1.509-.1-1.858-.646-.335-1.517.2-2.086.429C106.661,52.368,104.695,52.5,103.233,53.569Z" transform="translate(-79.821 -42.781)" fill="url(#linear-gradient-14)"/>
    <path id="Path_81" data-name="Path 81" d="M152.083,217.866l-2.329-3.786a6.9,6.9,0,0,0-.127,3.441l.663,4.97c.355,2.663.757,5.443,2.43,7.65s5.047,3.6,7.654,2.348a3.242,3.242,0,0,0,1.379-1.157,3.3,3.3,0,0,0,.423-1.281c.411-2.82-1.32-5.416-3.891-6.875a29.216,29.216,0,0,1-3.269-1.707A12.492,12.492,0,0,1,152.083,217.866Z" transform="translate(-129.954 -178.393)" fill="url(#linear-gradient-15)"/>
    <path id="Path_82" data-name="Path 82" d="M246.792,169.558s.048-.2-1.419-.518-11.22-.686-39.087,9.558c0,0-9.353,2.914-10.393,4.046a5.124,5.124,0,0,0-1.222,2.488Z" transform="translate(-166.831 -140.811)" fill="#00ffcb"/>
    <path id="Path_83" data-name="Path 83" d="M246.792,169.558s.048-.2-1.419-.518-11.22-.686-39.087,9.558c0,0-9.353,2.914-10.393,4.046a5.124,5.124,0,0,0-1.222,2.488Z" transform="translate(-166.831 -140.811)" fill="url(#linear-gradient-16)"/>
    <path id="Path_84" data-name="Path 84" d="M159.693,5.57a4.7,4.7,0,0,0-4.438,1.308,6.8,6.8,0,0,0-1.769,4.107c-2.925-.579-6.13,1.591-6.365,4.311a4.555,4.555,0,0,0-3.9,1.972,3.739,3.739,0,0,0-.054,4.064,3.1,3.1,0,0,0,.871,5.031.993.993,0,0,0,.514.111c.4-.049.589-.459.716-.807,2.025-5.567,6.741-9.927,12.1-13,2.8-1.6,18.008-6.385,10.726-10.7C164.726-.03,160.756,2.481,159.693,5.57Z" transform="translate(-124.042 -1.254)" fill="#00ffcb"/>
    <path id="Path_85" data-name="Path 85" d="M168.965,6.514h0c-2.728,2.722-9.775,5.1-11.6,6.146a31.919,31.919,0,0,0-8.2,6.55,20.584,20.584,0,0,0-3.9,6.453c-.125.345-.317.756-.714.8a.993.993,0,0,1-.514-.111,3.1,3.1,0,0,1-.871-5.031,3.739,3.739,0,0,1,.054-4.064,4.555,4.555,0,0,1,3.9-1.972c.236-2.72,3.439-4.89,6.365-4.311a6.837,6.837,0,0,1,1.769-4.107,4.694,4.694,0,0,1,4.436-1.3c1.062-3.089,5.035-5.6,8.4-3.605C170.65,3.474,170.44,5.044,168.965,6.514Z" transform="translate(-124.045 -1.25)" fill="url(#linear-gradient-17)"/>
    <path id="Path_86" data-name="Path 86" d="M277.341,234.351,277,233.9" transform="translate(-234.006 -194.889)" fill="none" stroke="#000" stroke-miterlimit="10" stroke-width="0.41"/>
    <path id="Path_87" data-name="Path 87" d="M136.364,241.537c.909-3.835,3.978-6.936,7.266-9.469a56.967,56.967,0,0,1,33.607-11.478,1.258,1.258,0,0,1,.9.22c.466.441-.125,1.134-.677,1.484-2.632,1.668-5.486,3.072-7.857,5.039s-4.263,4.662-4.212,7.579c.1,5.664,7.179,9.751,7.139,15.414-.024,2.71-1.778,5.225-4.1,6.915a24.6,24.6,0,0,1-8.017,3.448c-4.7,1.295-9.8,2.13-14.491.81-3.682-1.035-7.085-3.746-8.074-7.211-.521-1.831-.687-3.778-1.149-5.651A15.086,15.086,0,0,1,136.364,241.537Z" transform="translate(-119.021 -183.811)" fill="#00ffcb"/>
    <path id="Path_88" data-name="Path 88" d="M136.364,241.537c.909-3.835,3.978-6.936,7.266-9.469a56.967,56.967,0,0,1,33.607-11.478,1.258,1.258,0,0,1,.9.22c.466.441-.125,1.134-.677,1.484-2.632,1.668-5.486,3.072-7.857,5.039s-4.263,4.662-4.212,7.579c.1,5.664,7.179,9.751,7.139,15.414-.024,2.71-1.778,5.225-4.1,6.915a24.6,24.6,0,0,1-8.017,3.448c-4.7,1.295-9.8,2.13-14.491.81-3.682-1.035-7.085-3.746-8.074-7.211-.521-1.831-.687-3.778-1.149-5.651A15.086,15.086,0,0,1,136.364,241.537Z" transform="translate(-119.021 -183.811)" fill="url(#linear-gradient-18)"/>
    <path id="Path_89" data-name="Path 89" d="M208.049,281.388c1.355-4.574,6.561-7.477,8.193-11.976.736-2.012.736-4.286,2.06-6.018,2.11-2.738,6.4-2.851,9.874-3.934-2.511,2.73-4.878,5.839-5.169,9.39-.236,2.861.909,5.644,1.533,8.455s.7,5.859-.723,8.416a9.372,9.372,0,0,1-5.87,4.377C211.443,291.746,206.2,287.62,208.049,281.388Z" transform="translate(-177.441 -216.163)" fill="#00ffcb"/>
    <path id="Path_90" data-name="Path 90" d="M223.96,277.421c1.156-3.905,5.6-6.382,7-10.229.622-1.714.687-6.531,1.824-8.009,1.791-2.331,6.577-3.161,9.537-4.083-2.143,2.329-6.842,6.394-7.091,9.426-.2,2.442.775,4.816,1.309,7.211s.7,4.578-.515,6.761c-1,1.8-1.4,2.938-3.544,3.478C226.924,283.382,222.386,282.74,223.96,277.421Z" transform="translate(-190.472 -212.534)" fill="#00ffcb"/>
    <path id="Path_91" data-name="Path 91" d="M223.96,279.11c1.156-3.905,5.6-6.382,7-10.229.622-1.714.687-6.531,1.824-8.009,1.8-2.338,5.64-2.82,8.606-3.743-2.145,2.331-5.911,6.047-6.159,9.079-.2,2.442.775,4.816,1.309,7.211s.7,4.578-.515,6.761c-1,1.8-1.4,2.938-3.544,3.478C226.924,285.072,222.386,284.429,223.96,279.11Z" transform="translate(-190.472 -214.224)" fill="url(#linear-gradient-19)"/>
    <path id="Path_92" data-name="Path 92" d="M197.386,184.472c5.458-2.1,11.045-3.932,16.615-5.76,6.174-2.026,12.355-4.053,18.7-5.586,4.438-1.073,9.055-1.907,13.605-1.341.048,1.045-1.023,1.811-1.992,2.373-9.4,5.443-19.82,9.25-30.165,13.023A107.273,107.273,0,0,1,197.7,192.2a3.792,3.792,0,0,1-1.76.045c-1.708-.5-1.988-3.084-1.826-4.447C194.323,186.037,195.619,185.153,197.386,184.472Z" transform="translate(-166.344 -143.038)" fill="#00ffcb"/>
    <path id="Path_93" data-name="Path 93" d="M246.31,171.789c.048,1.045-1.023,1.811-1.992,2.371-.5.292-1.009.579-1.52.86-9,4.994-18.853,8.591-28.646,12.164-3.617,1.32-7.249,2.644-10.964,3.7-1.808.513-3.632.964-5.484,1.318a3.77,3.77,0,0,1-1.76.044c-1.708-.5-1.988-3.082-1.824-4.444.208-1.759,1.5-2.643,3.271-3.325,5.46-2.1,11.045-3.932,16.613-5.76,6.176-2.026,12.357-4.051,18.7-5.586C237.14,172.057,241.758,171.225,246.31,171.789Z" transform="translate(-166.349 -143.042)" fill="url(#linear-gradient-20)"/>
    <path id="Path_94" data-name="Path 94" d="M222.092,205.133c-.736.129-1.5.057-2.209.24a18.973,18.973,0,0,0-2.708,1.387c-1.37.6-3.032.516-4.342,1.219-.506.27-.937.647-1.458.9a8.323,8.323,0,0,1-1.579.471,30.715,30.715,0,0,0-5.493,2.13,1.549,1.549,0,0,0-.954,1c-.976,4.662,33.305-8.847,33.134-9.181a.7.7,0,0,0-.282-.25c-2.422-1.419-4.924.154-7.42.312a10.991,10.991,0,0,0-3.28.359A20.724,20.724,0,0,1,222.092,205.133Z" transform="translate(-173.896 -168.715)" fill="url(#linear-gradient-21)"/>
    <path id="Path_95" data-name="Path 95" d="M203.012,259.918l-4.112,8.155.852.384a36.99,36.99,0,0,0,10.573-8.911l.838-1.992-.852-.384Z" transform="translate(-170.282 -214.257)" fill="#00ffcb"/>
    <path id="Path_96" data-name="Path 96" d="M203.012,259.918l-4.112,8.155.852.384a36.99,36.99,0,0,0,10.573-8.911l.838-1.992-.852-.384Z" transform="translate(-170.282 -214.257)" fill="url(#linear-gradient-22)"/>
    <path id="Path_97" data-name="Path 97" d="M202.16,259.534l-3.26,8.539a36.99,36.99,0,0,0,10.574-8.911l.838-1.992Z" transform="translate(-170.282 -214.257)" fill="#00ffcb"/>
    <path id="Path_98" data-name="Path 98" d="M286.681,172.7c-.072.067-1.521,1.4-3.51,3.23-9,4.994-18.853,8.591-28.646,12.164-3.617,1.32-7.249,2.644-10.964,3.7l4.05-4.544Z" transform="translate(-206.721 -143.951)" fill="url(#linear-gradient-23)"/>
    <path id="Path_99" data-name="Path 99" d="M230.07,196.784l1.484-.439,2.2-.724.228-.641-3.532.671Z" transform="translate(-187.749 -162.286)" fill="url(#linear-gradient-24)"/>
    <path id="Path_100" data-name="Path 100" d="M301.27,170.945a2.147,2.147,0,0,1,1.082-1.4c1.009-.661,5.071-.335,5.071-.335l-.78,1.71Z" transform="translate(-253.808 -140.982)" fill="url(#linear-gradient-25)"/>
    <path id="Path_101" data-name="Path 101" d="M264.9,172.373a.157.157,0,0,1,.1,0,.124.124,0,0,1,.063.07.517.517,0,0,1-.26.671.763.763,0,0,1,.318.218.373.373,0,0,1,.134.387.333.333,0,0,1-.213.14.36.36,0,0,1-.258-.044.828.828,0,0,1-.313-.4c-.121.074-.109.268-.245.32a.21.21,0,0,1-.184-.035.386.386,0,0,1-.109-.156.9.9,0,0,1-.064-.285c0-.059.009-.131.068-.154s.171.02.21-.037a.451.451,0,0,1-.184-.168.205.205,0,0,1,.061-.278c.136-.079.2.042.318.06C264.579,172.7,264.676,172.442,264.9,172.373Z" transform="translate(-223.293 -143.673)" fill="url(#linear-gradient-26)"/>
    <path id="Path_102" data-name="Path 102" d="M274.447,185.628a.119.119,0,0,1,.094.02.1.1,0,0,1,.04.08.544.544,0,0,1-.436.587.711.711,0,0,1,.249.283.369.369,0,0,1,.024.406.352.352,0,0,1-.245.087.347.347,0,0,1-.238-.1.759.759,0,0,1-.184-.458c-.138.044-.184.233-.326.253a.2.2,0,0,1-.175-.079.347.347,0,0,1-.061-.168.819.819,0,0,1,.015-.292c.013-.057.046-.124.109-.132s.16.059.214.012a.426.426,0,0,1-.136-.211.213.213,0,0,1,.136-.255c.153-.045.184.086.291.131C274.04,185.876,274.208,185.643,274.447,185.628Z" transform="translate(-230.891 -154.71)" fill="url(#linear-gradient-27)"/>
    <path id="Path_103" data-name="Path 103" d="M289.03,182.2a.147.147,0,0,1,.094.018.123.123,0,0,1,.042.082.544.544,0,0,1-.436.587.714.714,0,0,1,.249.283.364.364,0,0,1,.022.406.35.35,0,0,1-.244.086.345.345,0,0,1-.237-.1.779.779,0,0,1-.193-.459c-.138.044-.184.235-.324.253a.191.191,0,0,1-.175-.077.356.356,0,0,1-.063-.168.863.863,0,0,1,.017-.292c.013-.059.044-.124.109-.134s.16.06.214.013a.415.415,0,0,1-.136-.211.213.213,0,0,1,.134-.255c.155-.045.184.086.293.131C288.623,182.45,288.791,182.218,289.03,182.2Z" transform="translate(-242.785 -151.86)" fill="url(#linear-gradient-28)"/>
    <path id="Path_104" data-name="Path 104" d="M311.585,154.248a.119.119,0,0,1,.094.02.1.1,0,0,1,.04.08.544.544,0,0,1-.436.587.7.7,0,0,1,.249.283.369.369,0,0,1,.024.406.352.352,0,0,1-.245.087.347.347,0,0,1-.238-.1.779.779,0,0,1-.193-.458c-.136.042-.184.233-.324.252a.191.191,0,0,1-.175-.077.353.353,0,0,1-.061-.168.819.819,0,0,1,.015-.292c.013-.057.044-.124.109-.134s.16.06.214.013a.426.426,0,0,1-.136-.211.213.213,0,0,1,.134-.255c.155-.045.184.086.293.131C311.176,154.5,311.343,154.263,311.585,154.248Z" transform="translate(-261.187 -128.592)" fill="url(#linear-gradient-29)"/>
    <path id="Path_105" data-name="Path 105" d="M276.021,166.723a.119.119,0,0,1,.057-.052.124.124,0,0,1,.085.008.443.443,0,0,1,.263.552.736.736,0,0,1,.337-.034.377.377,0,0,1,.331.168.238.238,0,0,1-.043.2.286.286,0,0,1-.188.108.825.825,0,0,1-.449-.082c-.028.111.1.225.052.327a.157.157,0,0,1-.14.079.357.357,0,0,1-.166-.039.829.829,0,0,1-.223-.143c-.039-.035-.077-.086-.055-.132s.12-.077.107-.132a.422.422,0,0,1-.228,0,.183.183,0,0,1-.14-.2c.033-.122.149-.079.236-.132C276.032,167.107,275.923,166.89,276.021,166.723Z" transform="translate(-232.877 -138.93)" fill="url(#linear-gradient-30)"/>
    <path id="Path_106" data-name="Path 106" d="M290.531,161.233a.118.118,0,0,1,.057-.052.124.124,0,0,1,.085.008.443.443,0,0,1,.263.552.735.735,0,0,1,.337-.034.377.377,0,0,1,.331.168.238.238,0,0,1-.043.2.286.286,0,0,1-.188.108.825.825,0,0,1-.449-.082c-.028.111.1.225.052.335a.159.159,0,0,1-.14.079.357.357,0,0,1-.166-.039.829.829,0,0,1-.223-.143c-.039-.035-.077-.086-.055-.132s.12-.077.107-.132a.423.423,0,0,1-.228-.008.183.183,0,0,1-.14-.2c.033-.122.149-.079.236-.132C290.542,161.612,290.433,161.4,290.531,161.233Z" transform="translate(-244.716 -134.361)" fill="url(#linear-gradient-31)"/>
    <path id="Path_107" data-name="Path 107" d="M325.632,157.785a.086.086,0,0,1,.057-.055.1.1,0,0,1,.082.011.446.446,0,0,1,.265.552.727.727,0,0,1,.335-.034c.133.013.285.055.331.168a.238.238,0,0,1-.043.2.286.286,0,0,1-.189.109.819.819,0,0,1-.447-.082c-.029.109.1.225.052.327a.165.165,0,0,1-.142.079.357.357,0,0,1-.166-.039.94.94,0,0,1-.223-.143c-.039-.035-.077-.085-.055-.132s.12-.077.107-.132a.439.439,0,0,1-.226,0,.188.188,0,0,1-.14-.2c.035-.121.149-.077.236-.131C325.642,158.162,325.535,157.948,325.632,157.785Z" transform="translate(-273.357 -131.488)" fill="url(#linear-gradient-32)"/>
    <path id="Path_108" data-name="Path 108" d="M288.288,173.928c0-.012.015-.023.028-.027a.062.062,0,0,1,.042,0,.221.221,0,0,1,.133.277.362.362,0,0,1,.169-.017.188.188,0,0,1,.166.086c.028.065-.04.139-.116.154a.421.421,0,0,1-.225-.042c-.015.055.052.112.026.168a.082.082,0,0,1-.07.039.183.183,0,0,1-.085-.018.394.394,0,0,1-.11-.072.06.06,0,0,1-.028-.065c.011-.027.059-.039.052-.067a.24.24,0,0,1-.114,0,.094.094,0,0,1-.07-.1c.018-.062.076-.04.12-.067C288.294,174.118,288.238,174.009,288.288,173.928Z" transform="translate(-243.05 -144.948)" fill="url(#linear-gradient-33)"/>
    <path id="Path_109" data-name="Path 109" d="M302.44,159.2a.058.058,0,0,1,.028-.027.062.062,0,0,1,.042,0,.221.221,0,0,1,.133.277.362.362,0,0,1,.169-.017.188.188,0,0,1,.166.086c.028.065-.039.139-.116.154a.422.422,0,0,1-.225-.042c-.015.055.052.112.026.168a.082.082,0,0,1-.07.04.216.216,0,0,1-.085-.02.421.421,0,0,1-.111-.072.059.059,0,0,1-.028-.065c.011-.027.059-.039.053-.067a.246.246,0,0,1-.116,0,.1.1,0,0,1-.07-.1c.018-.062.075-.04.12-.067C302.445,159.388,302.39,159.281,302.44,159.2Z" transform="translate(-254.597 -132.688)" fill="url(#linear-gradient-34)"/>
    <path id="Path_110" data-name="Path 110" d="M316.159,169.631a.068.068,0,0,1,.028-.027.072.072,0,0,1,.042,0,.223.223,0,0,1,.133.277.386.386,0,0,1,.169-.017.188.188,0,0,1,.166.086c.028.067-.041.139-.116.154a.4.4,0,0,1-.225-.042c-.015.055.052.114.026.168a.084.084,0,0,1-.07.04.2.2,0,0,1-.085-.02.429.429,0,0,1-.11-.07c-.02-.018-.039-.044-.028-.067s.059-.039.053-.067a.2.2,0,0,1-.116,0,.1.1,0,0,1-.07-.1c.018-.06.075-.039.12-.065C316.164,169.821,316.109,169.713,316.159,169.631Z" transform="translate(-265.79 -141.372)" fill="url(#linear-gradient-35)"/>
    <path id="Path_111" data-name="Path 111" d="M86.129,275.948c-3.59,3.265-8.451,6.048-13.447,5.247a13.246,13.246,0,0,1-7.663-4.506,30.86,30.86,0,0,1-4.477-7.418,1.482,1.482,0,0,0-.633-.785,1.122,1.122,0,0,0-1.36.545,2.5,2.5,0,0,0-.134,1.491,28.978,28.978,0,0,0,9.193,17.47,17.118,17.118,0,0,0,5.988,3.8,12.541,12.541,0,0,0,11.488-1.922c2.945-2.348,4.35-5.869,5.473-9.275a10.607,10.607,0,0,1,2.531-4.8c.841-.768,1.962-1.316,2.531-2.269,1.633-2.737-2.187-2.5-3.777-1.863C89.577,272.561,87.843,274.388,86.129,275.948Z" transform="translate(-55.617 -223.612)" fill="url(#linear-gradient-36)"/>
    <path id="Path_112" data-name="Path 112" d="M214.474,16.258h0c-2.13,2.121-7.615,3.976-9.033,4.781a24.912,24.912,0,0,0-6.386,5.1.9.9,0,0,1-.79-.195,1.19,1.19,0,0,1-.271-.857,4.345,4.345,0,0,1,.123-1.405,2.976,2.976,0,0,1,2.577-1.977,1.071,1.071,0,0,0,.552-.134.741.741,0,0,0,.2-.268,6.177,6.177,0,0,1,.762-1.291,1.75,1.75,0,0,1,1.377-.651,1.044,1.044,0,0,0,.637-.042.708.708,0,0,0,.217-.293,2.873,2.873,0,0,1,3.313-1.251,6.163,6.163,0,0,1,1.27-2.718,3.657,3.657,0,0,1,4.081-1.021A1.841,1.841,0,0,1,214.474,16.258Z" transform="translate(-169.534 -11.691)" fill="url(#linear-gradient-37)"/>
    <path id="Path_113" data-name="Path 113" d="M390.574,171.61s-12.037.5-18.644,3.085c0,0,15.463-2.012,16.32-2.031l-5.362,2.3s6.636-1.432,7.584-2.3S390.574,171.61,390.574,171.61Z" transform="translate(-311.461 -143.044)" fill="url(#linear-gradient-38)"/>
    <path id="Path_114" data-name="Path 114" d="M211.312,264.642c2.052-2.138,5.4-2.876,8.516-2.77,2.235.074,4.591.592,6.128,2.069a1.454,1.454,0,0,1,.368.493c.217.553-.3,1.174-.92,1.316a2.435,2.435,0,0,1-1.809-.441c-.521-.34-.963-.783-1.473-1.137s-1.346-.523-1.611-.015c-.184.367.092.89-.232,1.174a.931.931,0,0,1-.788.079,12.766,12.766,0,0,0-2.279-.548,5.11,5.11,0,0,0-3.619,1.756,10.881,10.881,0,0,1-3.129,2.556,5.349,5.349,0,0,0-1.959.954c-.582.636-.473,1.615-1,2.289a3.345,3.345,0,0,1-1.441.9q-1.289.52-2.608.969c-1.473.5-3.151.917-4.571.3-.267-.117-.552-.327-.512-.6a.613.613,0,0,1,.2-.335c.955-.936,2.491-.9,3.693-1.407s2.179-1.4,3.407-1.932C208.575,269.08,209.331,266.7,211.312,264.642Z" transform="translate(-169.849 -218.162)" fill="url(#linear-gradient-39)"/>
    <path id="Path_115" data-name="Path 115" d="M87.523,235.856c-.723.77-1.162,1.734-1.885,2.5a2.817,2.817,0,0,1-2.945.919c-1.116-.459-1.473-1.865-2.588-2.314-.954-.384-2.143.069-3.074-.359-1.642-.753-.858-3.119-1.787-4.563-.65-1.006-2.052-1.412-2.873-2.314-1.022-1.12-1.027-2.872-2.249-3.81a.7.7,0,0,0-.5-.181.624.624,0,0,0-.377.25c-.723.885-.237,2.146.368,3.1a17.561,17.561,0,0,0,2.776,3.354,3.44,3.44,0,0,1,.979,1.219,5.832,5.832,0,0,1,.14,1.355c.236,2.18,2.818,3.384,4.188,5.176a15.435,15.435,0,0,0,1.185,1.606c1.088,1.105,2.84,1.4,4.466,1.509,2.13.148,4.536-.008,5.975-1.447.368-.376.76-.867,1.316-.85.291.008.552.168.849.176.944.037,1.13-1.206.966-2.052-.184-.983-.239-4.311-1.189-4.833C90.367,233.814,87.931,235.114,87.523,235.856Z" transform="translate(-64.199 -188.096)" fill="url(#linear-gradient-40)"/>
    <path id="Path_116" data-name="Path 116" d="M188.589,264.6a1.98,1.98,0,0,0,1.417-.944c.249-.406.4-.921.861-1.122s1.027.023,1.543-.035c.758-.086,1.252-.741,1.867-1.155a3.189,3.189,0,0,1,2.1-.5.657.657,0,0,1,.28.077.4.4,0,0,1,.122.52,1.042,1.042,0,0,1-.445.4,3.574,3.574,0,0,1-1.629.451,1.026,1.026,0,0,0-.381.055c-.265.121-.307.453-.514.646-.35.324-.983.131-1.416.354a1.28,1.28,0,0,0-.449.449,4.185,4.185,0,0,1-1.031,1.239,6.96,6.96,0,0,0-1.163.679c-.687.7-.09,1.845-.436,2.74a1.512,1.512,0,0,1-1.073.9,1.541,1.541,0,0,1-1.386-.371,2.418,2.418,0,0,1-.552-1.326,3.4,3.4,0,0,1,.1-2.158c.121-.236.6-1.124.9-1.2S188.165,264.649,188.589,264.6Z" transform="translate(-159.897 -217.296)" fill="url(#linear-gradient-41)"/>
    <ellipse id="Ellipse_6" data-name="Ellipse 6" cx="1.035" cy="0.942" rx="1.035" ry="0.942" transform="translate(24.064 43.503)" fill="url(#linear-gradient-42)"/>
    <ellipse id="Ellipse_7" data-name="Ellipse 7" cx="1.035" cy="0.942" rx="1.035" ry="0.942" transform="translate(21.571 59.365)" fill="url(#linear-gradient-42)"/>
    <ellipse id="Ellipse_8" data-name="Ellipse 8" cx="0.744" cy="0.677" rx="0.744" ry="0.677" transform="translate(24.87 40.742)" fill="url(#linear-gradient-44)"/>
    <ellipse id="Ellipse_9" data-name="Ellipse 9" cx="0.477" cy="0.434" rx="0.477" ry="0.434" transform="translate(47.723 52.89)" fill="url(#linear-gradient-45)"/>
    <ellipse id="Ellipse_10" data-name="Ellipse 10" cx="0.611" cy="0.557" rx="0.611" ry="0.557" transform="translate(49.389 54.956)" fill="url(#linear-gradient-46)"/>
    <ellipse id="Ellipse_11" data-name="Ellipse 11" cx="0.611" cy="0.557" rx="0.611" ry="0.557" transform="translate(49.689 52.768)" fill="url(#linear-gradient-47)"/>
    <ellipse id="Ellipse_12" data-name="Ellipse 12" cx="0.744" cy="0.677" rx="0.744" ry="0.677" transform="translate(51.101 47.88)" fill="url(#linear-gradient-48)"/>
    <ellipse id="Ellipse_13" data-name="Ellipse 13" cx="0.744" cy="0.677" rx="0.744" ry="0.677" transform="translate(17.052 46.455)" fill="url(#linear-gradient-44)"/>
    <ellipse id="Ellipse_14" data-name="Ellipse 14" cx="0.744" cy="0.677" rx="0.744" ry="0.677" transform="translate(11.092 41.733)" fill="url(#linear-gradient-44)"/>
    <ellipse id="Ellipse_15" data-name="Ellipse 15" cx="0.744" cy="0.677" rx="0.744" ry="0.677" transform="translate(14.895 24.174)" fill="url(#linear-gradient-44)"/>
    <ellipse id="Ellipse_16" data-name="Ellipse 16" cx="0.744" cy="0.677" rx="0.744" ry="0.677" transform="translate(28.684 39.538)" fill="url(#linear-gradient-44)"/>
    <path id="Path_117" data-name="Path 117" d="M137.352,115.073a24.143,24.143,0,0,0-1.235,4.4,28.881,28.881,0,0,0,.214,7.992,25.219,25.219,0,0,0,1.359,6.453,2.96,2.96,0,0,1,.341,1.377,1.014,1.014,0,0,1-.97.937c-.552-.022-.895-.553-1.081-1.03a8.133,8.133,0,0,1-.565-2.851,2.786,2.786,0,0,0-.184-1.291,11.778,11.778,0,0,0-.871-1.046,3.028,3.028,0,0,1-.381-1.677,35.434,35.434,0,0,1,.214-4.662,2.226,2.226,0,0,1,.228-.884c.118-.208.3-.386.4-.6.352-.75-.388-1.57-.341-2.385a7.055,7.055,0,0,1,.635-1.63c.385-1.194-.368-2.577.258-3.681.184-.309.451-.567.6-.887.411-.854-.144-1.9.278-2.753.263-.53.856-.869,1.158-1.38a5.312,5.312,0,0,0,.368-.979,7.173,7.173,0,0,1,1.857-2.515c.442-.448,1.819-2.042,2.148-.907.2.681-1.257,2.608-1.578,3.268A67.913,67.913,0,0,0,137.352,115.073Z" transform="translate(-117.305 -87.332)" fill="url(#linear-gradient-53)"/>
    <path id="Path_118" data-name="Path 118" d="M83.326,154.893a2.515,2.515,0,0,1-.736.7c-.315.168-.7.21-1,.386-1.174.671-.611,2.748-1.9,3.211-.318.112-.7.094-.961.293-.565.426-.033,1.261-.164,1.918s-.909,1.05-1.071,1.69a2.573,2.573,0,0,0,.168,1.241,5.883,5.883,0,0,1-.847,4.221,1.32,1.32,0,0,0-.239.661,1.408,1.408,0,0,0,.263.659,5.5,5.5,0,0,1,.775,2.945c-.037,1.315-.5,2.824.457,3.813a9.114,9.114,0,0,1,.683.646,3.362,3.362,0,0,1,.368,2c.037.688.368,1.509,1.125,1.591a1.672,1.672,0,0,0,.394-1.611l-.479-4.085c-.16-1.365-.32-2.733-.368-4.107a47.882,47.882,0,0,1,.659-8.017A11.582,11.582,0,0,1,81,160.5a12.375,12.375,0,0,1,1.533-2.639l3.074-4.415a1.254,1.254,0,0,0,.261-1.279C84.866,152.318,83.9,154.177,83.326,154.893Z" transform="translate(-70.471 -126.864)" fill="url(#linear-gradient-54)"/>
  </g>
</svg>
