<svg xmlns="http://www.w3.org/2000/svg" xmlns:xlink="http://www.w3.org/1999/xlink" width="80" height="80" viewBox="0 0 80 80">
  <defs>
    <linearGradient id="linear-gradient" x1="0.478" y1="0.129" x2="0.459" y2="-0.063" gradientUnits="objectBoundingBox">
      <stop offset="0" stop-color="#fff" stop-opacity="0"/>
      <stop offset="0.84" stop-color="#fff" stop-opacity="0.839"/>
      <stop offset="0.97" stop-color="#fff"/>
    </linearGradient>
    <linearGradient id="linear-gradient-2" x1="0.432" y1="0.262" x2="0.508" y2="0.376" xlink:href="#linear-gradient"/>
    <linearGradient id="linear-gradient-3" x1="0.418" y1="0.716" x2="0.55" y2="0.4" gradientUnits="objectBoundingBox">
      <stop offset="0" stop-color="#ecc4d7"/>
      <stop offset="0.42" stop-color="#efd4d1"/>
      <stop offset="1" stop-color="#f2eac9"/>
    </linearGradient>
    <linearGradient id="linear-gradient-4" y1="0.501" x2="1" y2="0.501" gradientUnits="objectBoundingBox">
      <stop offset="0" stop-opacity="0"/>
      <stop offset="0.91" stop-opacity="0.8"/>
      <stop offset="1"/>
    </linearGradient>
    <linearGradient id="linear-gradient-5" x1="0" y1="0.5" x2="1" y2="0.5" xlink:href="#linear-gradient-3"/>
    <linearGradient id="linear-gradient-6" x1="0.122" y1="0.387" x2="1.322" y2="0.739" xlink:href="#linear-gradient"/>
    <linearGradient id="linear-gradient-7" x1="-0.2" y1="0.335" x2="1.179" y2="0.671" xlink:href="#linear-gradient"/>
    <linearGradient id="linear-gradient-8" x1="-0.001" y1="0.503" x2="0.999" y2="0.503" xlink:href="#linear-gradient-3"/>
    <linearGradient id="linear-gradient-9" x1="0.5" y1="-0.056" x2="0.5" y2="-0.06" xlink:href="#linear-gradient-4"/>
    <linearGradient id="linear-gradient-10" x1="0.551" y1="0.049" x2="0.189" y2="1.44" xlink:href="#linear-gradient-4"/>
    <linearGradient id="linear-gradient-11" x1="0.503" y1="0.266" x2="0.428" y2="1.536" xlink:href="#linear-gradient-4"/>
    <linearGradient id="linear-gradient-12" x1="0.511" y1="0.446" x2="0.56" y2="-0.171" xlink:href="#linear-gradient"/>
    <linearGradient id="linear-gradient-13" x1="0.23" y1="1.437" x2="0.6" y2="0.154" xlink:href="#linear-gradient"/>
    <linearGradient id="linear-gradient-15" x1="0.229" y1="1.437" x2="0.599" y2="0.154" xlink:href="#linear-gradient"/>
    <linearGradient id="linear-gradient-16" x1="0.229" y1="1.437" x2="0.6" y2="0.155" xlink:href="#linear-gradient"/>
    <linearGradient id="linear-gradient-17" x1="0.23" y1="1.438" x2="0.6" y2="0.154" xlink:href="#linear-gradient"/>
    <linearGradient id="linear-gradient-19" x1="0.231" y1="1.435" x2="0.6" y2="0.155" xlink:href="#linear-gradient"/>
    <linearGradient id="linear-gradient-20" x1="0.229" y1="1.436" x2="0.6" y2="0.152" xlink:href="#linear-gradient"/>
    <linearGradient id="linear-gradient-21" x1="0.229" y1="1.438" x2="0.6" y2="0.154" xlink:href="#linear-gradient"/>
    <linearGradient id="linear-gradient-22" x1="0.383" y1="1.575" x2="0.618" y2="-0.402" xlink:href="#linear-gradient"/>
    <linearGradient id="linear-gradient-23" x1="0.612" y1="0.344" x2="0.448" y2="0.736" xlink:href="#linear-gradient"/>
    <linearGradient id="linear-gradient-24" x1="0.591" y1="-0.012" x2="0.325" y2="1.34" xlink:href="#linear-gradient-3"/>
  </defs>
  <g id="swimming_" transform="translate(0.013 0.001)" opacity="0.8">
    <path id="Path_119" data-name="Path 119" d="M26.8,81.833S32.422,52.229,52.29,50,90,51.767,101.207,80.748s-29.949,54.7-41.721,47.51S26.8,81.833,26.8,81.833Z" transform="translate(-25.824 -49.48)" fill="#00ffcb" opacity="0.15"/>
    <path id="Path_120" data-name="Path 120" d="M94.391,173.12a48.564,48.564,0,0,1-6.808,11c-2.851,3.654-5.942,7.123-9.592,9.326-7.105,4.3-15.4,3.34-23.186,1.976-4.927-.863-10.019-1.936-14.151-5.474a34.183,34.183,0,0,1-5.273-6.142q-3.06-4.274-5.855-8.849a30.728,30.728,0,0,1-2.839-5.575,16.023,16.023,0,0,1-.619-2.219c-.6-2.9-.206-6.332,1.558-8.348.86-.981,1.97-1.554,2.822-2.549,1.176-1.382,1.727-3.406,2.552-5.166,2.476-5.242,7.815-7.947,12.416-6.282,2.294.831,4.3,2.583,6.41,4.01s4.487,2.578,6.833,2.042c2.377-.543,4.5-2.3,6.85-3.037,2.251-.7,4.207-.306,6.491.158,6.788,1.372,14.122-.079,20.254,3.894a9.008,9.008,0,0,1,3.023,3.034,12.135,12.135,0,0,1,1.335,4.641A27.645,27.645,0,0,1,94.391,173.12Z" transform="translate(-25.036 -119.31)" fill="#00ffcb" opacity="0.44"/>
    <path id="Path_121" data-name="Path 121" d="M94.391,183.11a48.565,48.565,0,0,1-6.808,11c-2.851,3.654-5.942,7.123-9.592,9.326-7.105,4.3-15.4,3.34-23.186,1.976-4.927-.863-10.019-1.937-14.151-5.474a34.184,34.184,0,0,1-5.273-6.142q-3.06-4.274-5.855-8.849a30.727,30.727,0,0,1-2.839-5.575,16.023,16.023,0,0,1-.619-2.219c-.6-2.9-.206-6.332,1.558-8.348.86-.981,1.97-1.554,2.822-2.549,1.176-1.382,1.727-3.406,2.552-5.155,2.476-5.242,7.815-7.946,12.416-6.282,2.294.831,4.3,2.583,6.41,4.01s4.487,2.578,6.833,2.042c2.377-.543,4.5-2.3,6.85-3.037,2.251-.7,4.207-.306,6.491.158,6.788,1.372,14.122-.079,20.254,3.894a9.008,9.008,0,0,1,3.023,3.034,12.135,12.135,0,0,1,1.335,4.641A27.623,27.623,0,0,1,94.391,183.11Z" transform="translate(-25.036 -126.672)" opacity="0.44" fill="url(#linear-gradient)"/>
    <path id="Path_122" data-name="Path 122" d="M164.706,185.96a7.6,7.6,0,0,1-4.869,1.754c-1.91.174-3.819.264-5.731.285a60.686,60.686,0,0,1-4.57,6.6c-2.851,3.654-5.942,7.123-9.592,9.326a35.679,35.679,0,0,1-12.29,4.638,21.92,21.92,0,0,1-8.946-4.39,34.2,34.2,0,0,1-5.271-6.145q-3.064-4.269-5.855-8.854c-.435-.715-.869-1.44-1.279-2.184a20.042,20.042,0,0,1-2.187-5.609,12.894,12.894,0,0,1-.25-2.111,9.105,9.105,0,0,1,1.805-6.242c.86-.981,1.972-1.554,2.822-2.551,1.18-1.38,1.731-3.4,2.556-5.155a12.883,12.883,0,0,1,.635-1.19c2.668-4.451,7.541-6.625,11.781-5.092,2.294.831,4.3,2.58,6.41,4.01a17.717,17.717,0,0,0,1.935,1.161,7.307,7.307,0,0,0,4.9.879c2.375-.528,4.5-2.3,6.848-3.037,2.253-.7,4.209-.3,6.491.158,4.745.96,9.757.541,14.442,1.557a11.676,11.676,0,0,1,.782,4.253v4.963l.074.079c1.166,1.319,1.568,3.43,1.62,5.427C167.033,181.263,166.431,184.276,164.706,185.96Z" transform="translate(-86.983 -129.773)" opacity="0.44" fill="url(#linear-gradient-2)"/>
    <path id="Path_123" data-name="Path 123" d="M104.108,167.945v13.719L78.657,180.64l-15.2-.612-18.775-.757-1.981-.079L26.8,178.551v-16.5c.392-1.055,2.42,2.812,8.665,1.472a27.269,27.269,0,0,1,11.906.285s1.186.116,3.155.251a145.575,145.575,0,0,0,20.126.079,45.62,45.62,0,0,0,11.327-2.087,80.024,80.024,0,0,1,13.749-3.527,6.411,6.411,0,0,1,5.858,2.287,10.808,10.808,0,0,1,2.523,7.137Z" transform="translate(-25.824 -129.695)" fill="#00ffcb" opacity="0.19"/>
    <path id="Path_124" data-name="Path 124" d="M131.99,91.174v19.172H79.739l14.95-7.551,2.269-3.38-3.625-.66.747-9.714s1.826,2.111,2.827.971a.233.233,0,0,0,.043-.069l.012-.024c.7-1.638-4.7-14.774-10.9-18.822-6.247-4.066-10.743-7.564-10.881-7.672h0s-6.218,1.206-6.536.992-.726-.406,0-1,3.192-1.039,2.99-2.079-6.414-2.691-8.329-2.134-1.564-.836-.532-1.5a14.62,14.62,0,0,1,9.585-.5c2.814.981,4.238,1.723,8.612,4.419a91.834,91.834,0,0,1,19.645,16.162c6.831,7.754,18.412,8.308,18.412,8.308L128.6,88.1l2.131.873A2.326,2.326,0,0,1,131.99,91.174Z" transform="translate(-53.706 -54.734)" fill="url(#linear-gradient-3)"/>
    <path id="Path_125" data-name="Path 125" d="M218.225,190.884a3.414,3.414,0,0,0,.807,1.237c.755.575,1.692-.071,2.488-.551a13.574,13.574,0,0,1,6.132-1.5,35.854,35.854,0,0,1,5.075-.169,18.969,18.969,0,0,1,7.506,2.09c1.172.6,2.414,1.343,3.643.974a1.759,1.759,0,0,1-1.032,1.562,6.272,6.272,0,0,1-3.21.441,88.783,88.783,0,0,0-15.944.931,9.369,9.369,0,0,0-3.466,1.021c-1.081.636-2.106,1.678-3.258,1.419l.716-1.477a1.013,1.013,0,0,0,.122-.364c.035-.427-.38-.657-.712-.718a6.673,6.673,0,0,1-1.6-.348,1.865,1.865,0,0,1-1.089-1.417c-.136-1,.559-1.847.732-2.839a10.983,10.983,0,0,0,0-1.878C215.131,185.956,217.739,189.887,218.225,190.884Z" transform="translate(-174.707 -151.437)" opacity="0.36" fill="url(#linear-gradient-4)"/>
    <path id="Path_126" data-name="Path 126" d="M97.8,239.225a37.963,37.963,0,0,1-2.232,4.417,60.687,60.687,0,0,1-4.57,6.6c-2.851,3.654-5.942,7.123-9.592,9.326a35.677,35.677,0,0,1-12.29,4.638,31.749,31.749,0,0,1-10.918.034c-4.927-.863-10-4.633-14.128-8.179a34.183,34.183,0,0,1-5.273-6.142q-3.06-4.274-5.855-8.849a30.728,30.728,0,0,1-2.839-5.575h0c4.976,6.255,11.45,7.751,17.658,7.123a31.048,31.048,0,0,0,4.6-.81,50.052,50.052,0,0,0,13.722-6.068c1.521-.952,2.4-1.607,2.4-1.607l12.792,2.219Z" transform="translate(-28.443 -185.415)" fill="#00ffcb"/>
    <path id="Path_127" data-name="Path 127" d="M161.032,170.718a5.8,5.8,0,0,1-.239,1.264c-1.5,4.778-9.018,3.87-13.5,2.264-1.787-.641-3.095-1.393-3.344-1.939a5.015,5.015,0,0,1,.06-2.475c.854-4.525,4.56-13.044,9.006-12.445C153.011,157.389,161.73,162.259,161.032,170.718Z" transform="translate(-118.7 -128.896)" fill="url(#linear-gradient-5)"/>
    <path id="Path_128" data-name="Path 128" d="M168.02,194.09a9.683,9.683,0,0,0-1.7,4.042,1.713,1.713,0,0,0,.7,1.831c1.545.828,2.725-2.09,3.072-3.546C170.5,194.71,169.582,192.174,168.02,194.09Zm1.818,2.19c-.3,1.251-1.31,3.754-2.637,3.042a1.469,1.469,0,0,1-.6-1.583,8.291,8.291,0,0,1,1.459-3.469c1.341-1.63,2.129.546,1.778,2.018Z" transform="translate(-136.526 -155.434)" fill="#fff"/>
    <path id="Path_129" data-name="Path 129" d="M170.936,197.09c-.3,1.251-1.31,3.754-2.637,3.042a1.469,1.469,0,0,1-.6-1.583,8.292,8.292,0,0,1,1.459-3.469C170.5,193.442,171.287,195.618,170.936,197.09Z" transform="translate(-137.624 -156.237)"/>
    <path id="Path_130" data-name="Path 130" d="M186.044,166.221c-.122-2.77-2.144-1.712-2.758-.1-.522,1.369-1.211,4.533.361,5.277a1.124,1.124,0,0,0,1.49-.731A11.027,11.027,0,0,0,186.044,166.221Zm-.186,1.055c-.078,1.3-.648,4.026-2.063,3.694a1.31,1.31,0,0,1-.852-1.369,9.11,9.11,0,0,1,.84-3.791c1.023-1.984,2.16-.077,2.067,1.467Z" transform="translate(-149.54 -134.161)" fill="#fff"/>
    <path id="Path_131" data-name="Path 131" d="M186.842,168.535c-.078,1.3-.648,4.026-2.063,3.694a1.31,1.31,0,0,1-.852-1.369,9.11,9.11,0,0,1,.84-3.791C185.8,165.084,186.935,166.991,186.842,168.535Z" transform="translate(-150.532 -135.42)"/>
    <path id="Path_132" data-name="Path 132" d="M170.936,197.09c-.3,1.251-1.31,3.754-2.637,3.042a1.469,1.469,0,0,1-.6-1.583,8.292,8.292,0,0,1,1.459-3.469C170.5,193.442,171.287,195.618,170.936,197.09Z" transform="translate(-137.624 -156.237)" fill="url(#linear-gradient-6)"/>
    <path id="Path_133" data-name="Path 133" d="M186.842,168.535c-.078,1.3-.648,4.026-2.063,3.694a1.31,1.31,0,0,1-.852-1.369,9.11,9.11,0,0,1,.84-3.791C185.8,165.084,186.935,166.991,186.842,168.535Z" transform="translate(-150.532 -135.42)" fill="url(#linear-gradient-7)"/>
    <path id="Path_134" data-name="Path 134" d="M198.964,160.613s-.111-.884.433-.855a3.211,3.211,0,0,1,1.974,3.248C201.37,163.016,199.205,160.948,198.964,160.613Z" transform="translate(-162.46 -130.663)" fill="url(#linear-gradient-8)"/>
    <path id="Path_135" data-name="Path 135" d="M124.974,163.959s-2.092-7.234,3.3-10.379,9.468,0,9.468,0-4.364,4.314-5.082,7.651a13.931,13.931,0,0,1-.767,2.44,8.456,8.456,0,0,0,.116,6.736l.012.029A10.272,10.272,0,0,1,124.974,163.959Z" transform="translate(-103.426 -125.087)" fill="#00ffcb"/>
    <path id="Path_136" data-name="Path 136" d="M124.974,163.959s-2.092-7.234,3.3-10.379,9.468,0,9.468,0-4.364,4.314-5.082,7.651a13.931,13.931,0,0,1-.767,2.44,8.456,8.456,0,0,0,.116,6.736l.012.029A10.272,10.272,0,0,1,124.974,163.959Z" transform="translate(-103.426 -125.087)" opacity="0.36" fill="url(#linear-gradient-9)"/>
    <path id="Path_137" data-name="Path 137" d="M137.725,153.569s-4.364,4.314-5.082,7.651a13.931,13.931,0,0,1-.767,2.44,8.459,8.459,0,0,0,.113,6.736l.012.029a10.276,10.276,0,0,1-7.042-6.48s-.066-.232-.146-.628c-.363-1.828-.982-7.168,3.441-9.762A8.619,8.619,0,0,1,137.725,153.569Z" transform="translate(-103.415 -125.076)" opacity="0.36" fill="url(#linear-gradient-10)"/>
    <path id="Path_138" data-name="Path 138" d="M146.491,198.346c-1.5,4.778-9.018,3.87-13.5,2.264a10.276,10.276,0,0,1-7.042-6.48s-.066-.232-.146-.628l.056-.116a.293.293,0,0,1,.2-.214.234.234,0,0,1,.246.109,21.126,21.126,0,0,1,1.506,1.754,5.41,5.41,0,0,0,1.9,1.161l.351.142a2.306,2.306,0,0,0,2.189.095,1.156,1.156,0,0,0,.151-.121,3.321,3.321,0,0,0,.206.95.745.745,0,0,0,.619.528c.279,0,.664-.224.765.108a.872.872,0,0,1,0,.319,1.558,1.558,0,0,0,.444,1.274.885.885,0,0,0,1.087.124,4.4,4.4,0,0,0,.72-.718.779.779,0,0,1,.846-.29,1.869,1.869,0,0,0,1.5,1.266c.014-.055.08-.063.128-.055a15.233,15.233,0,0,0,4.077.206,6.125,6.125,0,0,0,2.967-1.169C145.969,198.679,146.328,198.246,146.491,198.346Z" transform="translate(-104.399 -155.258)" opacity="0.36" fill="url(#linear-gradient-11)"/>
    <path id="Path_139" data-name="Path 139" d="M131.836,206.99c5.374-1.5,9.765-6.659,15.113-8.3a12.352,12.352,0,0,1,7.687.132c1.529.528,2.985,1.346,4.514,1.871a13.786,13.786,0,0,0,6.416.559c2.538-.359,5.457-1.206,7.367.96,1.166,1.319,1.568,3.43,1.62,5.427.072,2.773-.53,5.786-2.255,7.469a7.6,7.6,0,0,1-4.869,1.754c-12.247,1.113-24.531-1.319-36.8-.963-3.646.1-7.32.451-10.92-.285a8.182,8.182,0,0,1-4.712-2.435,6.361,6.361,0,0,1-1.3-5.928,2.806,2.806,0,0,1,.825-1.285,2.69,2.69,0,0,1,2.04-.359C121.538,206.117,126.861,208.391,131.836,206.99Z" transform="translate(-94.575 -158.918)" fill="#00ffcb" opacity="0.7"/>
    <path id="Path_140" data-name="Path 140" d="M172.263,215.105a7.6,7.6,0,0,1-4.869,1.754c-1.91.174-3.819.264-5.731.285-10.347.14-20.714-1.543-31.073-1.248-3.646.1-7.32.451-10.92-.285a12,12,0,0,1-1.213-.3,7.435,7.435,0,0,1-3.507-2.132,6.6,6.6,0,0,1-1.554-4.68,5.04,5.04,0,0,1,.258-1.248,2.806,2.806,0,0,1,.825-1.285,2.69,2.69,0,0,1,2.04-.359c4.978.512,10.3,2.776,15.267,1.385,5.374-1.5,9.765-6.659,15.113-8.3a12.352,12.352,0,0,1,7.687.132c1.529.528,2.985,1.346,4.514,1.871a13.786,13.786,0,0,0,6.416.559c2.5-.354,5.383-1.185,7.293.881l.074.079c1.166,1.319,1.568,3.43,1.62,5.427C174.59,210.409,173.988,213.422,172.263,215.105Z" transform="translate(-94.54 -158.918)" fill="url(#linear-gradient-12)"/>
    <ellipse id="Ellipse_17" data-name="Ellipse 17" cx="1.607" cy="2.055" rx="1.607" ry="2.055" transform="translate(63.673 36.999)" fill="url(#linear-gradient-13)"/>
    <ellipse id="Ellipse_18" data-name="Ellipse 18" cx="1.607" cy="2.055" rx="1.607" ry="2.055" transform="translate(46.2 50.784)" fill="url(#linear-gradient-13)"/>
    <ellipse id="Ellipse_19" data-name="Ellipse 19" cx="1.607" cy="2.055" rx="1.607" ry="2.055" transform="translate(70.704 39.273)" fill="url(#linear-gradient-15)"/>
    <ellipse id="Ellipse_20" data-name="Ellipse 20" cx="1.168" cy="1.493" rx="1.168" ry="1.493" transform="translate(74.218 29.77)" fill="url(#linear-gradient-16)"/>
    <ellipse id="Ellipse_21" data-name="Ellipse 21" cx="1.607" cy="2.055" rx="1.607" ry="2.055" transform="translate(32.055 46.671)" fill="url(#linear-gradient-17)"/>
    <ellipse id="Ellipse_22" data-name="Ellipse 22" cx="1.607" cy="2.055" rx="1.607" ry="2.055" transform="translate(16.875 30.807)" fill="url(#linear-gradient-13)"/>
    <ellipse id="Ellipse_23" data-name="Ellipse 23" cx="0.64" cy="0.818" rx="0.64" ry="0.818" transform="translate(68.517 38.236)" fill="url(#linear-gradient-19)"/>
    <ellipse id="Ellipse_24" data-name="Ellipse 24" cx="0.549" cy="0.702" rx="0.549" ry="0.702" transform="translate(36.316 49.38)" fill="url(#linear-gradient-20)"/>
    <ellipse id="Ellipse_25" data-name="Ellipse 25" cx="0.549" cy="0.702" rx="0.549" ry="0.702" transform="translate(74.286 35.706)" fill="url(#linear-gradient-21)"/>
    <path id="Path_141" data-name="Path 141" d="M172.5,223.259c4.2-1.174,7.634-5.208,11.822-6.5a9.683,9.683,0,0,1,6.014.1c1.2.412,2.335,1.055,3.532,1.464a10.753,10.753,0,0,0,5.02.438c1.985-.28,4.269-.942,5.762.752a6.824,6.824,0,0,1,1.269,4.245c.056,2.169-.413,4.527-1.764,5.841a5.9,5.9,0,0,1-3.811,1.375c-9.581.871-19.187-1.029-28.793-.755-2.851.082-5.725.354-8.543-.222a6.344,6.344,0,0,1-3.685-1.9,4.987,4.987,0,0,1-1.015-4.638,2.2,2.2,0,0,1,.646-1.005,2.1,2.1,0,0,1,1.595-.28C164.446,222.578,168.609,224.346,172.5,223.259Z" transform="translate(-130.032 -172.314)" fill="url(#linear-gradient-22)"/>
    <path id="Path_142" data-name="Path 142" d="M39.087,192.022c-.53-1.055-.926-2.214-1.492-3.235-1.267-2.272-3.608-3.767-5.686-2.923-2.659,1.071-3.8,5.16-6.189,6.984a14.244,14.244,0,0,0-2.682,1.934c-1.265,1.514-1.285,4.184-.493,6.155a12.832,12.832,0,0,0,3.629,4.659,68.05,68.05,0,0,0,7.015,5.54,33.306,33.306,0,0,1,5.193,3.986c1.908,1.963,3.4,4.6,5.523,6.163,2.6,1.915,5.777,1.944,8.777,1.847,1.6-.045,3.487-.311,4.287-2.084.848-1.876-.083-4.277-1.283-5.8-1.62-2.053-3.7-3.38-5.585-5.013a11.9,11.9,0,0,1-4.229-6.614c-.246-1.28-.221-2.638-.512-3.891C44.455,195.805,40.76,195.354,39.087,192.022Z" transform="translate(-22.02 -149.707)" fill="url(#linear-gradient-23)"/>
    <path id="Path_143" data-name="Path 143" d="M147.935,108.407c.7-1.638-4.7-14.774-10.9-18.822-6.247-4.066-10.743-7.564-10.881-7.672h0s.291-.741,2.692.744,12.078,7.625,12.078,7.625,7.275,11.289,7.823,13.68A6.457,6.457,0,0,1,147.935,108.407Z" transform="translate(-104.676 -73.221)" fill="url(#linear-gradient-24)"/>
  </g>
</svg>
